<svg width="448" height="153" viewBox="0 0 448 153" fill="none" xmlns="http://www.w3.org/2000/svg">
<rect width="448" height="153" rx="20" fill="#EEEEEE"/>
<path d="M224.113 29H227.466L227.45 32.2177C227.45 32.3179 227.4 32.3679 227.3 32.3679L224.309 32.371C224.174 32.371 224.107 32.3035 224.107 32.1687L224.113 29Z" fill="black"/>
<path d="M215.27 30.2728L210.772 30.2649C210.685 30.2648 210.615 30.3346 210.615 30.4209L210.607 34.889C210.607 34.9753 210.677 35.0454 210.763 35.0456L215.262 35.0534C215.348 35.0536 215.418 34.9837 215.418 34.8974L215.426 30.4293C215.426 30.343 215.357 30.2729 215.27 30.2728Z" fill="black"/>
<path d="M225.017 39.8975H220.415C220.328 39.8975 220.258 39.9674 220.258 40.0538V44.6567C220.258 44.743 220.328 44.8129 220.415 44.8129H225.017C225.104 44.8129 225.174 44.743 225.174 44.6567V42.3552V40.0538C225.174 39.9674 225.104 39.8975 225.017 39.8975Z" fill="black"/>
<path d="M151.984 124H132V85.755C132.948 73.4193 138.411 63.8978 148.389 57.1906C153.28 53.9034 158.774 51.9728 164.87 51.3987C166.102 51.2823 168.143 51.224 170.993 51.224C182.209 51.2302 193.424 51.2302 204.638 51.224C204.751 51.224 204.807 51.1678 204.807 51.0555L204.816 43.4064C204.816 43.2777 204.88 43.2134 205.009 43.2134L212.762 43.2164C212.796 43.2164 212.828 43.2294 212.851 43.2523C212.875 43.2753 212.888 43.3065 212.888 43.339L212.891 51.1413C212.891 51.1787 212.876 51.2145 212.85 51.241C212.823 51.2674 212.787 51.2823 212.75 51.2823L205.018 51.2792C204.976 51.2792 204.935 51.2963 204.906 51.3268C204.876 51.3572 204.859 51.3985 204.859 51.4416V75.6482C204.859 75.6627 204.856 75.6771 204.85 75.6904C204.845 75.7038 204.837 75.716 204.827 75.7262C204.816 75.7365 204.804 75.7446 204.791 75.7502C204.777 75.7557 204.763 75.7585 204.749 75.7585C191.839 75.7463 178.929 75.7473 166.019 75.7616C162.744 75.7657 160.708 75.8546 159.912 76.0282C154.751 77.1437 151.996 82.0745 151.996 87.2229C151.996 99.483 151.992 111.742 151.984 124Z" fill="black"/>
<path d="M233.141 68.5411C231.783 68.5371 230.425 68.533 229.069 68.5289C227.245 68.5258 227.113 65.7861 229.222 65.7647C230.019 65.7565 231.908 65.7596 234.891 65.7739C235.802 65.78 236.265 66.2908 236.279 67.3061C236.314 69.7332 236.332 72.1603 236.332 74.5874C236.332 75.9634 232.752 77.4252 231.661 77.7255C227.742 78.8011 223.436 77.7347 220.571 74.8694C215.815 70.1132 215.903 62.2313 220.644 57.4997C224.631 53.5219 231.557 53.0898 235.955 56.9879C237.027 57.941 236.181 59.5253 234.98 59.4732C234.635 59.4589 234.165 59.2311 233.57 58.7898C229.89 56.0532 224.668 56.7519 221.916 60.5244C218.576 65.1028 219.878 71.7865 224.941 74.3852C227.409 75.6518 230.112 75.5252 233.049 74.0052C233.127 73.9644 233.192 73.9031 233.238 73.8281C233.283 73.753 233.307 73.6669 233.307 73.5792L233.301 68.6974C233.301 68.5932 233.248 68.5411 233.141 68.5411Z" fill="black"/>
<path d="M243.968 74.3582C244.765 75.2868 246 74.3674 246.628 75.3113C247.345 76.3931 246.683 77.5729 245.451 77.7752C242.436 78.2686 240.422 75.6668 240.401 72.7463C240.358 67.128 240.336 61.5097 240.333 55.8915C240.333 54.2489 243.349 53.9976 243.343 56.1979C243.329 61.6364 243.331 67.0749 243.349 72.5134C243.351 73.2632 243.557 73.8781 243.968 74.3582Z" fill="black"/>
<path d="M272.22 63.8589C272.695 63.4605 273.17 62.9548 273.654 62.6576C280.031 58.7319 286.746 64.5759 285.192 71.6397C283.399 79.779 271.595 80.0977 269.361 72.13C269.109 71.2331 268.986 69.5895 268.99 67.1992C268.994 63.4605 268.998 59.7218 269.002 55.983C269.002 54.6132 270.957 54.129 271.733 55.1311C271.951 55.4151 272.06 55.8932 272.06 56.5653C272.056 58.972 272.054 61.3776 272.054 63.7822C272.054 63.9253 272.11 63.9508 272.22 63.8589ZM277.194 75.2497C278.594 75.2497 279.937 74.663 280.927 73.6188C281.917 72.5745 282.474 71.1582 282.474 69.6814C282.474 68.2046 281.917 66.7883 280.927 65.7441C279.937 64.6999 278.594 64.1132 277.194 64.1132C275.793 64.1132 274.45 64.6999 273.46 65.7441C272.47 66.7883 271.913 68.2046 271.913 69.6814C271.913 71.1582 272.47 72.5745 273.46 73.6188C274.45 74.663 275.793 75.2497 277.194 75.2497Z" fill="black"/>
<path d="M315.871 75.7676V76.8187C314.28 79.1723 310.732 77.1773 309.864 75.1853C309.546 74.4478 309.38 73.1617 309.368 71.3271C309.339 66.3564 309.335 61.3807 309.356 56.3998C309.358 55.8768 309.429 55.4978 309.57 55.2629C310.076 54.411 311.559 54.3681 312.089 55.1771C312.265 55.4447 312.353 55.8891 312.353 56.5102C312.34 61.7934 312.343 67.0756 312.362 72.3568C312.368 73.985 313.058 74.8176 314.433 74.8544C315.23 74.8727 315.601 75.0382 315.871 75.7676Z" fill="black"/>
<path d="M250.64 75.8504C248.449 73.8708 247.762 70.7756 248.271 67.8919C249.319 61.9651 256.036 59.8414 260.808 62.6424C264.323 64.7078 265.5 69.749 263.737 73.4632C261.396 78.4062 254.575 79.4083 250.64 75.8504ZM256.351 75.2712C257.047 75.2675 257.735 75.1194 258.377 74.8353C259.019 74.5512 259.601 74.1366 260.091 73.6153C260.58 73.0939 260.968 72.476 261.231 71.7969C261.493 71.1177 261.627 70.3905 261.623 69.6569C261.619 68.9232 261.478 68.1975 261.208 67.5211C260.938 66.8447 260.544 66.2309 260.049 65.7147C259.554 65.1985 258.968 64.7901 258.323 64.5127C257.678 64.2353 256.988 64.0944 256.292 64.0981C255.596 64.1017 254.907 64.2498 254.265 64.5339C253.624 64.8181 253.041 65.2326 252.552 65.754C252.062 66.2753 251.675 66.8932 251.412 67.5724C251.149 68.2516 251.016 68.9787 251.02 69.7124C251.024 70.446 251.165 71.1718 251.435 71.8482C251.705 72.5246 252.098 73.1384 252.593 73.6545C253.088 74.1707 253.675 74.5792 254.32 74.8566C254.964 75.1339 255.654 75.2748 256.351 75.2712Z" fill="black"/>
<path d="M302.246 75.4643C299.461 78.4461 294.931 78.8414 291.796 76.1416C287.883 72.7706 288.232 66.1819 292.198 63.1327C296.874 59.538 303.867 61.8885 305.191 67.5089C305.746 69.8655 305.455 73.693 305.458 76.5798C305.461 78.1826 302.237 78.5074 302.412 76.0834C302.426 75.8954 302.427 75.7095 302.415 75.5256C302.405 75.3744 302.348 75.354 302.246 75.4643ZM297.273 75.2529C297.966 75.2517 298.653 75.1065 299.293 74.8255C299.933 74.5446 300.514 74.1334 301.004 73.6155C301.493 73.0976 301.881 72.483 302.145 71.807C302.409 71.131 302.545 70.4067 302.543 69.6754C302.542 68.9442 302.404 68.2204 302.138 67.5453C301.871 66.8702 301.481 66.257 300.99 65.7408C300.499 65.2246 299.916 64.8155 299.275 64.5368C298.634 64.258 297.947 64.1152 297.254 64.1164C296.56 64.1176 295.874 64.2629 295.234 64.5438C294.594 64.8248 294.012 65.2359 293.523 65.7538C293.033 66.2718 292.646 66.8863 292.381 67.5623C292.117 68.2383 291.982 68.9627 291.983 69.6939C291.984 70.4251 292.122 71.1489 292.389 71.8241C292.655 72.4992 293.045 73.1123 293.537 73.6285C294.028 74.1447 294.611 74.5539 295.252 74.8326C295.893 75.1113 296.58 75.2541 297.273 75.2529Z" fill="black"/>
<path d="M220.124 91.9819C222.569 92.0166 225.015 92.0177 227.46 91.985C229.133 91.9605 229.409 94.5071 227.31 94.5132C224.909 94.5193 222.519 94.5203 220.139 94.5163C220.116 94.5163 220.092 94.5209 220.071 94.5298C220.049 94.5387 220.03 94.5518 220.013 94.5683C219.997 94.5848 219.984 94.6044 219.975 94.626C219.966 94.6475 219.961 94.6707 219.961 94.694C219.98 97.0721 219.982 99.4614 219.967 101.862C219.952 104.157 217.246 104.071 217.243 102.03C217.233 96.1262 217.232 90.2739 217.24 84.4738C217.241 84.1287 217.378 83.7979 217.622 83.5538C217.866 83.3097 218.197 83.1722 218.542 83.1714C222.618 83.1653 226.685 83.1663 230.742 83.1745C231.928 83.1775 232.418 85.7088 230.083 85.7211C226.741 85.7374 223.411 85.7374 220.093 85.7211C220.077 85.7207 220.06 85.7236 220.045 85.7298C220.03 85.7359 220.016 85.7451 220.004 85.7568C219.993 85.7685 219.983 85.7825 219.977 85.7979C219.971 85.8134 219.967 85.83 219.967 85.8467L219.973 91.8256C219.973 91.9278 220.023 91.9799 220.124 91.9819Z" fill="black"/>
<path d="M304.964 90.6763C304.964 90.7172 304.981 90.7254 305.013 90.7009C307.332 89.0767 309.645 88.7202 311.951 89.6313C314.087 90.471 315.528 92.4691 315.641 94.7338C315.692 95.7982 315.695 98.2242 315.65 102.012C315.644 102.723 315.61 103.161 314.881 103.449C313.701 103.915 313.009 103.1 313.012 101.948C313.02 99.6431 313.008 97.3406 312.975 95.0402C312.965 94.2966 312.706 93.6193 312.2 93.0084C310.171 90.5599 305.075 91.2341 305.041 94.9636C305.016 97.4765 304.994 99.9884 304.974 102.499C304.961 103.835 302.307 104.182 302.307 102.03C302.305 96.073 302.303 90.1166 302.301 84.1612C302.301 83.7894 302.573 83.5095 303.116 83.3215C304.443 82.868 304.974 83.6218 304.986 84.8599C305.002 86.8089 304.995 88.7477 304.964 90.6763Z" fill="black"/>
<path d="M236.503 87.0026C237.466 87.0026 238.247 86.2219 238.247 85.2588C238.247 84.2958 237.466 83.5151 236.503 83.5151C235.54 83.5151 234.759 84.2958 234.759 85.2588C234.759 86.2219 235.54 87.0026 236.503 87.0026Z" fill="black"/>
<path d="M260.93 92.0584C260.164 92.0707 258.865 92.2484 258.711 91.1391C258.537 89.8704 259.658 89.7325 260.673 89.7631C260.985 89.7733 261.138 89.6221 261.129 89.3096C261.107 88.2288 261.111 87.049 261.142 85.77C261.166 84.6852 262.882 84.4247 263.486 85.2062C264.038 85.9233 263.783 88.6537 263.777 89.6099C263.777 89.6323 263.781 89.6545 263.789 89.6753C263.797 89.6961 263.81 89.7151 263.825 89.731C263.841 89.747 263.86 89.7597 263.88 89.7684C263.901 89.777 263.923 89.7815 263.946 89.7815C264.755 89.7907 266.036 89.6405 266.642 89.9439C267.378 90.3117 267.476 91.6508 266.584 91.9696C265.925 92.2055 264.687 92.0462 263.955 92.0646C263.845 92.0666 263.789 92.1228 263.789 92.2331C263.777 93.9268 263.778 95.6133 263.792 97.2926C263.805 98.8525 263.667 99.8025 264.816 100.611C265.717 101.243 267.473 100.385 267.74 101.804C267.988 103.127 266.97 103.621 265.815 103.55C263.676 103.418 262.251 102.45 261.54 100.648C261.268 99.9536 261.131 98.8535 261.129 97.3478C261.127 95.646 261.121 93.9421 261.111 92.2362C261.111 92.1156 261.051 92.0564 260.93 92.0584Z" fill="black"/>
<path d="M170.273 124H162.878L162.881 108.739C162.881 108.637 162.931 108.585 163.031 108.585L180.429 108.588C180.469 108.588 180.507 108.573 180.535 108.545C180.563 108.516 180.579 108.478 180.579 108.438L180.582 97.8106C180.582 97.7105 180.532 97.6604 180.432 97.6604L163.038 97.6666C162.927 97.6666 162.872 97.6114 162.872 97.5011L162.875 86.8427C162.875 86.7405 162.926 86.6895 163.028 86.6895H204.7C204.792 86.6895 204.838 86.7354 204.838 86.8274C205.086 106.882 190.18 122.648 170.273 124Z" fill="black"/>
<path d="M245.635 90.6608C247.921 88.8711 251.09 88.5616 253.483 90.1644C255.478 91.5035 256.15 93.5261 256.171 95.8827C256.204 99.1168 256.207 101.262 256.18 102.318C256.137 103.939 253.508 104.2 253.474 101.929C253.448 100.182 253.444 98.4375 253.462 96.6948C253.476 95.4384 253.356 94.4966 253.1 93.8694C251.994 91.145 247.388 90.6179 245.874 93.3637C245.601 93.8581 245.465 94.5895 245.467 95.5579C245.469 97.7623 245.469 99.9637 245.467 102.162C245.467 104.05 242.761 104.053 242.761 102.165C242.763 98.2056 242.765 94.2473 242.767 90.29C242.767 89.1224 245.24 88.6413 245.439 90.575C245.453 90.7221 245.519 90.7507 245.635 90.6608Z" fill="black"/>
<path d="M272.766 97.5136C273.286 101.225 277.647 102.212 280.574 100.483C281.032 100.213 281.396 100.084 281.668 100.094C282.431 100.118 283.099 100.912 282.762 101.703C282.256 102.889 278.754 103.633 277.611 103.649C271.423 103.719 268.374 97.2317 271.42 92.2733C273.826 88.3538 280.39 87.9002 282.829 92.1477C283.353 93.0609 284.313 95.9691 283.565 96.9406C283.359 97.2062 283.142 97.339 282.915 97.339C279.579 97.3308 276.244 97.3339 272.91 97.3482C272.799 97.3502 272.751 97.4054 272.766 97.5136ZM272.885 95.2704L281.306 95.2275C281.311 95.2275 281.315 95.2266 281.319 95.2249C281.323 95.2232 281.327 95.2208 281.33 95.2176C281.333 95.2145 281.336 95.2108 281.337 95.2067C281.339 95.2026 281.34 95.1982 281.34 95.1938V95.1723C281.335 94.1808 280.886 93.2322 280.093 92.5351C279.299 91.838 278.225 91.4495 277.108 91.4551H277.047C276.493 91.4578 275.946 91.5573 275.435 91.7477C274.925 91.9382 274.462 92.216 274.072 92.5651C273.683 92.9143 273.374 93.3281 273.165 93.7828C272.955 94.2375 272.849 94.7242 272.851 95.2153V95.2367C272.851 95.2456 272.855 95.2542 272.861 95.2605C272.868 95.2669 272.876 95.2704 272.885 95.2704Z" fill="black"/>
<path d="M291.508 91.7672C288.6 92.6498 287.834 96.4038 289.047 98.7819C290.405 101.442 293.558 101.975 296.001 100.372C297.668 99.2783 299.022 101.166 297.423 102.282C293.567 104.981 287.831 103.575 286.323 98.9504C285.741 97.1648 285.765 95.3803 286.396 93.5967C288.131 88.6996 294.992 87.5351 298.235 91.6691C298.869 92.4782 297.763 93.4956 296.963 93.3454C296.726 93.3005 296.367 93.0645 295.887 92.6375C294.659 91.5445 293.2 91.2544 291.508 91.7672Z" fill="black"/>
<path d="M236.558 89.27H236.448C235.722 89.27 235.133 89.8586 235.133 90.5847V102.23C235.133 102.956 235.722 103.545 236.448 103.545H236.558C237.284 103.545 237.873 102.956 237.873 102.23V90.5847C237.873 89.8586 237.284 89.27 236.558 89.27Z" fill="black"/>
<path d="M240.656 114.399C242.74 115.26 245.446 114.577 246.445 117.323C246.788 118.262 246.751 119.149 246.334 119.983C245.393 121.867 242.905 122.45 240.941 122.085C239.474 121.813 238.368 121.036 237.622 119.753C237.426 119.416 237.429 119.125 237.631 118.879C237.7 118.795 237.785 118.726 237.881 118.675C237.977 118.624 238.083 118.592 238.191 118.582C238.299 118.572 238.408 118.584 238.512 118.617C238.616 118.649 238.712 118.702 238.796 118.772C239.197 119.109 239.363 119.63 239.816 119.934C240.899 120.653 242.097 120.818 243.411 120.43C245.878 119.698 245.112 116.747 242.936 116.416C240.628 116.063 238.137 115.625 237.864 112.974C237.558 110.005 241.495 108.911 243.674 109.557C244.996 109.947 245.91 110.733 246.417 111.914C246.453 111.998 246.471 112.089 246.47 112.181C246.469 112.273 246.449 112.363 246.412 112.446C246.374 112.53 246.319 112.604 246.251 112.665C246.183 112.726 246.103 112.772 246.016 112.799C245.65 112.916 245.36 112.824 245.145 112.524C244.024 110.944 242.506 110.519 240.591 111.249C239.102 111.813 239.289 113.835 240.656 114.399Z" fill="black"/>
<path d="M218.113 109.538H218.058C217.597 109.538 217.224 109.911 217.224 110.372V121.177C217.224 121.637 217.597 122.011 218.058 122.011H218.113C218.573 122.011 218.946 121.637 218.946 121.177V110.372C218.946 109.911 218.573 109.538 218.113 109.538Z" fill="black"/>
<path d="M231.891 118.797C231.885 116.098 231.882 113.383 231.882 110.651C231.882 109.897 232.262 109.336 233.071 109.603C233.221 109.653 233.351 109.749 233.443 109.876C233.536 110.004 233.586 110.157 233.585 110.314C233.579 113.902 233.561 117.519 233.53 121.165C233.521 122.217 232.387 122.229 231.888 121.555C229.708 118.609 227.525 115.67 225.339 112.738C225.327 112.723 225.311 112.711 225.293 112.705C225.274 112.7 225.255 112.7 225.236 112.706C225.218 112.712 225.202 112.724 225.191 112.739C225.179 112.755 225.173 112.774 225.173 112.793C225.21 115.484 225.211 118.186 225.176 120.899C225.167 121.622 224.904 122.189 224.073 121.974C223.91 121.931 223.765 121.835 223.662 121.702C223.559 121.568 223.503 121.404 223.503 121.236C223.499 117.655 223.49 114.056 223.476 110.44C223.469 109.385 224.545 109.284 225.121 110.044C227.334 112.96 229.542 115.892 231.747 118.843C231.757 118.856 231.77 118.866 231.786 118.871C231.802 118.876 231.819 118.877 231.835 118.871C231.851 118.866 231.865 118.856 231.875 118.843C231.885 118.83 231.891 118.813 231.891 118.797Z" fill="black"/>
<path d="M252.567 111.123C251.562 111.104 250.554 111.1 249.542 111.111C248.822 111.117 248.338 110.783 248.62 110.01C248.671 109.873 248.762 109.754 248.882 109.669C249.002 109.585 249.145 109.539 249.291 109.538C251.996 109.52 254.729 109.49 257.489 109.45C257.93 109.441 258.267 109.58 258.5 109.866C258.624 110.018 258.683 110.212 258.664 110.407C258.645 110.602 258.55 110.783 258.399 110.908C258.162 111.102 257.834 111.174 257.415 111.123C256.976 111.068 256.039 111.075 254.605 111.144C254.501 111.15 254.449 111.206 254.449 111.31C254.449 114.55 254.447 117.78 254.443 121C254.443 122.425 252.736 122.376 252.742 120.896C252.75 117.696 252.749 114.496 252.739 111.294C252.737 111.182 252.68 111.125 252.567 111.123Z" fill="black"/>
<path d="M262.751 109.538H262.659C262.217 109.538 261.859 109.896 261.859 110.338V121.205C261.859 121.646 262.217 122.005 262.659 122.005H262.751C263.193 122.005 263.551 121.646 263.551 121.205V110.338C263.551 109.896 263.193 109.538 262.751 109.538Z" fill="black"/>
<path d="M270.795 111.126C269.788 111.108 268.78 111.101 267.77 111.105C267.093 111.105 266.554 110.78 266.83 110.029C266.883 109.883 266.981 109.756 267.108 109.667C267.236 109.578 267.388 109.53 267.544 109.53C270.322 109.519 273.126 109.513 275.956 109.511C276.405 109.509 276.711 109.719 276.872 110.139C276.902 110.219 276.915 110.303 276.91 110.388C276.905 110.472 276.883 110.554 276.844 110.63C276.673 110.967 276.377 111.132 275.956 111.126C274.924 111.108 273.892 111.105 272.86 111.117C272.752 111.117 272.698 111.172 272.698 111.283C272.71 114.529 272.708 117.771 272.692 121.009C272.689 122.309 271.052 122.349 271.043 121.242C271.019 117.926 270.991 114.611 270.961 111.295C270.961 111.184 270.905 111.128 270.795 111.126Z" fill="black"/>
<path d="M281.79 118.101C281.879 121.432 288.698 121.923 288.722 117.657C288.736 115.299 288.741 112.942 288.734 110.584C288.731 109.827 289.24 109.254 289.994 109.64C290.429 109.861 290.395 110.324 290.392 110.768C290.376 113.138 290.378 115.507 290.398 117.875C290.441 123.084 282.011 123.771 280.381 119.404C280.191 118.897 280.098 118.019 280.102 116.768C280.112 114.709 280.113 112.652 280.105 110.596C280.102 109.141 281.778 109.248 281.772 110.363C281.756 114.456 281.762 117.035 281.79 118.101Z" fill="black"/>
<path d="M297.683 111.132C296.643 111.096 295.607 111.086 294.575 111.105C293.288 111.123 293.368 109.563 294.419 109.554C297.171 109.528 299.922 109.519 302.672 109.53C303.37 109.533 303.898 109.836 303.659 110.614C303.614 110.759 303.525 110.886 303.403 110.976C303.282 111.065 303.135 111.114 302.984 111.114H299.705C299.599 111.114 299.546 111.167 299.546 111.273C299.519 114.575 299.497 117.871 299.479 121.163C299.472 122.364 297.848 122.33 297.851 121.061C297.855 117.807 297.853 114.552 297.845 111.298C297.845 111.19 297.791 111.134 297.683 111.132Z" fill="black"/>
<path d="M308.639 116.664V120.255C308.639 120.378 308.702 120.44 308.826 120.442C310.818 120.463 312.803 120.466 314.781 120.451C315.491 120.448 315.954 120.675 315.78 121.469C315.747 121.622 315.662 121.759 315.54 121.857C315.418 121.955 315.265 122.008 315.108 122.008L307.659 122.011C307.471 122.011 307.291 121.937 307.158 121.804C307.025 121.671 306.951 121.491 306.951 121.303L306.957 110.293C306.957 110.092 307.036 109.899 307.178 109.756C307.32 109.614 307.513 109.533 307.714 109.533C309.996 109.516 312.275 109.515 314.551 109.53C315.182 109.533 315.844 109.597 315.829 110.363C315.818 110.915 315.527 111.172 314.955 111.135C312.945 111.004 310.824 111.111 308.805 111.12C308.694 111.12 308.639 111.175 308.639 111.286V114.742C308.639 114.867 308.702 114.93 308.826 114.932C310.264 114.963 311.693 114.969 313.11 114.951C313.756 114.942 314.059 115.246 314.021 115.861C314.009 116.034 313.932 116.196 313.805 116.315C313.678 116.434 313.511 116.5 313.337 116.501H308.805C308.694 116.501 308.639 116.555 308.639 116.664Z" fill="black"/>
</svg>
