<svg width="177" height="51" viewBox="0 0 177 51" fill="none" xmlns="http://www.w3.org/2000/svg">
<path d="M61.0117 38.8759C62.159 42.6595 64.6583 44.9592 69.5868 44.9592C73.6394 44.9592 76.5413 43.1362 76.5413 39.9569C76.5413 36.7779 73.1664 35.7671 68.1677 34.5517L65.6684 33.8768C59.7939 32.4568 55.4027 29.8213 55.4027 23.6707C55.4027 17.5203 61.0756 13.2632 68.9763 13.2632C76.8771 13.2632 81.9428 16.6407 82.7513 23.6036H76.2696C75.2566 20.4277 72.8916 18.6717 68.775 18.6717C64.4539 18.6717 62.3605 20.4277 62.3605 23.063C62.3605 25.9672 64.4539 26.7795 68.775 28.0653L72.5558 29.1465C79.6479 31.1741 83.3619 33.3364 83.3619 39.2822C83.3619 46.1075 77.4874 50.4988 69.3822 50.4988C60.7369 50.4988 55.6744 46.7823 54.2552 38.8759H61.0084H61.0117Z" fill="#BCBCBC"/>
<path d="M122.87 32.0506C122.87 42.8643 116.184 50.5661 104.838 50.5661C93.4921 50.5661 87.0104 42.8612 87.0104 32.0506C87.0104 21.2399 93.898 13.2632 104.972 13.2632C116.047 13.2632 122.867 21.0353 122.867 32.0506H122.87ZM94.2367 31.9835C94.2367 39.8899 98.0178 44.8922 104.771 44.8922C111.524 44.8922 115.372 39.8899 115.372 31.9835C115.372 24.0769 111.457 18.9403 104.771 18.9403C98.0848 18.9403 94.2367 24.4127 94.2367 31.9835Z" fill="#BCBCBC"/>
<path d="M129.084 1.37158H135.904V49.6897H129.084V1.37158Z" fill="#BCBCBC"/>
<path d="M153.666 49.6893L140.431 14.2095H148.198L153.736 30.3613L157.652 42.3233H157.786C159.406 37.3883 160.554 34.8232 162.174 29.6194L167.374 14.2127H174.735L161.094 49.6924H153.666V49.6893Z" fill="#BCBCBC"/>
<path d="M18.6696 2.32679L2.32328 18.685C1.04019 19.9691 1.04019 22.0508 2.32328 23.3349C3.60637 24.6189 5.68667 24.6189 6.96976 23.3349L23.3161 6.97665C24.5992 5.69263 24.5992 3.61081 23.3161 2.32679C22.033 1.04276 19.9526 1.04276 18.6696 2.32679Z" fill="#BCBCBC"/>
<path d="M32.2832 15.9503L15.9368 32.3086C14.6537 33.5926 14.6537 35.6744 15.9368 36.9584C17.2199 38.2424 19.3002 38.2424 20.5833 36.9584L36.9296 20.6001C38.2127 19.3162 38.2127 17.2343 36.9296 15.9503C35.6465 14.6663 33.5663 14.6663 32.2832 15.9503Z" fill="#BCBCBC"/>
<path d="M20.5684 14.0426L4.22208 30.4007C2.93899 31.6848 2.93899 33.7667 4.22208 35.0508C5.50517 36.3348 7.58547 36.3348 8.86856 35.0508L25.2148 18.6925C26.4979 17.4084 26.4979 15.3266 25.2148 14.0426C23.9317 12.7586 21.8515 12.7586 20.5684 14.0426Z" fill="#BCBCBC"/>
<path d="M34.1819 27.6661L17.8356 44.0242C16.5525 45.3082 16.5525 47.3902 17.8356 48.6742C19.1187 49.9582 21.1989 49.9582 22.482 48.6742L38.8283 32.316C40.1114 31.0319 40.1114 28.9502 38.8283 27.6661C37.5452 26.3821 35.465 26.3821 34.1819 27.6661Z" fill="#BCBCBC"/>
</svg>
