<svg width="73" height="73" viewBox="0 0 73 73" fill="none" xmlns="http://www.w3.org/2000/svg">
<g clip-path="url(#clip0_624_842)">
<path d="M20.9933 33.6378C20.4208 33.1124 19.5654 32.8458 18.8204 32.6726C17.5828 32.3865 16.3472 32.0942 15.1134 31.7957C14.1902 31.5733 14.1367 30.5489 14.3099 29.7982C14.64 28.3674 16.6247 28.4615 17.734 28.5371C18.7325 28.6056 19.7251 28.7367 20.7117 28.9306C20.7397 28.9363 20.7538 28.9249 20.7538 28.8964L20.7531 26.412C20.7531 26.3998 20.749 26.388 20.7415 26.3785C20.734 26.3689 20.7235 26.3621 20.7117 26.3592C18.9856 25.9614 17.2618 25.8507 15.5404 26.027C15.0352 26.0784 14.5364 26.1927 14.044 26.3699C12.1741 27.0422 11.5218 28.4487 11.4049 30.3315C11.3617 31.023 11.4344 31.6655 11.6231 32.2591C11.9845 33.3969 12.9162 33.9936 14.0426 34.2702C15.1381 34.5392 16.2348 34.803 17.3326 35.0615C18.3121 35.2918 18.8796 35.398 18.9195 36.4816C18.9751 37.9922 18.4119 38.5204 16.9305 38.581C15.0784 38.6566 13.2584 38.4475 11.4705 37.9537C11.4458 37.947 11.4334 37.9563 11.4334 37.9815V40.5814C11.4334 40.6075 11.4458 40.6249 11.4705 40.6334C12.8428 41.0954 14.4226 41.2465 15.8619 41.2736C17.1059 41.2964 18.218 41.2365 19.3444 40.8566C21.6078 40.0938 22.0633 37.9423 21.8709 35.805C21.7996 35.0173 21.5829 34.1782 20.9933 33.6378Z" stroke="#8B8B8E" stroke-width="2"/>
<path d="M28.4436 32.855C28.4404 32.855 28.4373 32.8544 28.4343 32.8531C28.4314 32.8519 28.4287 32.8501 28.4265 32.8479C28.4242 32.8456 28.4224 32.843 28.4212 32.84C28.42 32.8371 28.4194 32.8339 28.4194 32.8307L28.4187 28.7715C28.4187 28.7651 28.4212 28.7589 28.4258 28.7544C28.4303 28.7499 28.4365 28.7473 28.4429 28.7473H35.4421C35.4485 28.7473 35.4547 28.7448 35.4592 28.7402C35.4637 28.7357 35.4663 28.7295 35.4663 28.7231V26.2137C35.4663 26.2073 35.4637 26.2011 35.4592 26.1966C35.4547 26.192 35.4485 26.1895 35.4421 26.1895L25.5543 26.1902C25.5478 26.1902 25.5417 26.1927 25.5371 26.1973C25.5326 26.2018 25.53 26.208 25.53 26.2144V41.0468C25.53 41.0532 25.5326 41.0594 25.5371 41.0639C25.5417 41.0685 25.5478 41.071 25.5543 41.071H28.3944C28.4009 41.071 28.407 41.0685 28.4116 41.0639C28.4161 41.0594 28.4187 41.0532 28.4187 41.0468V35.3209C28.4187 35.3144 28.4212 35.3083 28.4258 35.3037C28.4303 35.2992 28.4365 35.2966 28.4429 35.2966H34.5509C34.5574 35.2966 34.5635 35.2941 34.5681 35.2895C34.5726 35.285 34.5752 35.2788 34.5752 35.2724V32.8785C34.5752 32.8721 34.5726 32.8659 34.5681 32.8614C34.5635 32.8568 34.5574 32.8543 34.5509 32.8543L28.4436 32.855Z" stroke="#8B8B8E" stroke-width="2"/>
<path d="M42.427 28.7476C42.4338 28.7476 42.4403 28.7503 42.4451 28.7551C42.4499 28.7599 42.4526 28.7664 42.4526 28.7732V41.0456C42.4526 41.049 42.4533 41.0524 42.4546 41.0555C42.4559 41.0586 42.4578 41.0614 42.4602 41.0638C42.4625 41.0662 42.4654 41.0681 42.4685 41.0694C42.4716 41.0706 42.4749 41.0713 42.4783 41.0713H45.3142C45.321 41.0713 45.3275 41.0686 45.3323 41.0638C45.3371 41.059 45.3398 41.0525 45.3398 41.0456V28.7732C45.3398 28.7699 45.3405 28.7665 45.3418 28.7634C45.3431 28.7603 45.345 28.7575 45.3474 28.7551C45.3497 28.7527 45.3526 28.7508 45.3557 28.7495C45.3588 28.7482 45.3621 28.7476 45.3655 28.7476H49.8767C49.8835 28.7476 49.89 28.7449 49.8948 28.7401C49.8996 28.7352 49.9023 28.7287 49.9023 28.7219V26.2161C49.9023 26.2093 49.8996 26.2028 49.8948 26.1979C49.89 26.1931 49.8835 26.1904 49.8767 26.1904H37.9336C37.9268 26.1904 37.9203 26.1931 37.9155 26.1979C37.9107 26.2028 37.908 26.2093 37.908 26.2161V28.7219C37.908 28.7287 37.9107 28.7352 37.9155 28.7401C37.9203 28.7449 37.9268 28.7476 37.9336 28.7476H42.427Z" stroke="#8B8B8E" stroke-width="2"/>
<path d="M36.0901 50.5242V45.6787C36.0901 45.6549 36.0782 45.6431 36.0544 45.6431H34.6287C34.6049 45.6431 34.593 45.6549 34.593 45.6787V60.9702C34.593 60.9804 34.5964 60.9904 34.6028 60.9985C34.6091 61.0066 34.6179 61.0125 34.6279 61.0151C35.9677 61.3768 37.3286 61.5683 38.7107 61.5897C40.9534 61.6246 43.3701 61.2675 44.2441 58.8515C44.6662 57.6866 44.7681 56.3785 44.7375 55.1502C44.7089 53.9768 44.5942 52.8939 44.1978 51.8274C43.5241 50.0152 41.8788 49.4463 40.0716 49.4691C38.6391 49.4867 37.3234 49.8448 36.1243 50.5435C36.1015 50.5568 36.0901 50.5504 36.0901 50.5242Z" stroke="#8B8B8E" stroke-width="2"/>
<path d="M20.5391 60.0169C20.5391 60.0074 20.5353 59.9983 20.5287 59.9917C20.522 59.985 20.5129 59.9812 20.5035 59.9812L13.0003 59.9819C12.9908 59.9819 12.9818 59.9782 12.9751 59.9715C12.9684 59.9648 12.9646 59.9557 12.9646 59.9463V46.5796C12.9646 46.5701 12.9609 46.5611 12.9542 46.5544C12.9475 46.5477 12.9384 46.5439 12.929 46.5439L11.4697 46.5461C11.4603 46.5461 11.4512 46.5498 11.4445 46.5565C11.4378 46.5632 11.4341 46.5723 11.4341 46.5817L11.4333 61.3899C11.4333 61.3993 11.4371 61.4084 11.4438 61.4151C11.4505 61.4218 11.4595 61.4255 11.469 61.4255L20.5042 61.4227C20.5136 61.4227 20.5227 61.4189 20.5294 61.4122C20.5361 61.4056 20.5398 61.3965 20.5398 61.387L20.5391 60.0169Z" stroke="#8B8B8E" stroke-width="2"/>
<path d="M29.7191 54.8908C28.2249 54.636 26.7242 54.5624 25.2172 54.6698C24.9192 54.6912 24.649 54.7287 24.4066 54.7824C22.8561 55.126 22.0598 55.8254 21.888 57.4479C21.7703 58.56 21.8987 60.0699 22.8261 60.8563C23.3751 61.3218 24.1193 61.5221 24.8265 61.5713C26.5489 61.691 28.381 61.3032 29.7875 60.2703C29.7917 60.2671 29.7967 60.2651 29.8019 60.2645C29.8071 60.264 29.8125 60.2649 29.8173 60.2672C29.8221 60.2694 29.8262 60.2729 29.8293 60.2774C29.8323 60.2818 29.8342 60.287 29.8346 60.2924L29.903 61.3838C29.9044 61.4099 29.9184 61.423 29.9451 61.423L31.1891 61.4237C31.2309 61.4237 31.2518 61.4028 31.2518 61.361C31.2527 58.7095 31.2511 56.0452 31.2468 53.368C31.2432 51.5017 30.4747 49.9754 28.5129 49.6018C27.8648 49.4785 27.3972 49.4657 26.6622 49.4692C25.4741 49.4754 24.2869 49.6121 23.1006 49.8792C23.0869 49.8822 23.0746 49.8898 23.0658 49.9007C23.057 49.9116 23.0521 49.9251 23.0521 49.939L23.0528 51.151C23.0533 51.1828 23.069 51.1952 23.0999 51.188C24.6183 50.823 26.1028 50.7085 27.5533 50.8444C27.8931 50.8763 28.2282 50.9746 28.5585 51.1395C29.965 51.8425 29.7782 53.5641 29.7604 54.8566C29.7599 54.8841 29.7462 54.8955 29.7191 54.8908Z" stroke="#8B8B8E" stroke-width="2"/>
<path d="M54.3622 55.3149C54.0162 55.1514 53.7059 55.0461 53.4312 54.9991C52.9269 54.913 51.7238 54.7241 49.8218 54.4323C49.2643 54.3475 48.771 54.1272 48.6056 53.5348C48.4797 53.0842 48.4996 52.5762 48.6655 52.0106C48.8972 51.2222 49.6122 50.9698 50.3336 50.8729C50.8412 50.8044 51.3509 50.7761 51.8628 50.788C52.8285 50.8099 53.7907 50.8871 54.7493 51.0197C54.7735 51.023 54.7856 51.0126 54.7856 50.9883V49.7436C54.7856 49.7313 54.7812 49.7194 54.7731 49.71C54.765 49.7006 54.7538 49.6943 54.7414 49.6923C53.809 49.5469 52.8734 49.4723 51.9348 49.4685C49.28 49.4578 46.9659 49.8577 47.0494 53.1584C47.0821 54.4644 47.7031 55.4696 49.049 55.6863C49.577 55.7709 50.715 55.9494 52.463 56.2217C52.8273 56.2787 53.1467 56.3742 53.4504 56.5275C54.2731 56.9431 54.1932 58.1907 53.9922 58.9264C53.6935 60.0207 52.5479 60.2146 51.5598 60.2353C50.0513 60.2673 48.4324 60.139 47.0123 59.6664C46.9904 59.6592 46.9795 59.6668 46.9795 59.6892V61.0066C46.9795 61.0245 46.9855 61.0418 46.9965 61.0558C47.0075 61.0698 47.0228 61.0796 47.0401 61.0836C48.1446 61.3531 49.265 61.5142 50.4014 61.5669C51.7751 61.6311 53.6871 61.6953 54.7528 60.6109C55.5734 59.7747 55.7174 58.2121 55.5513 57.1085C55.4244 56.2637 55.1243 55.6756 54.3622 55.3149Z" stroke="#8B8B8E" stroke-width="2"/>
<path d="M42.8162 58.39C43.2275 57.3385 43.2903 56.0895 43.2418 54.9617C43.2012 54.0036 43.1035 53.0255 42.7157 52.2428C42.3072 51.4187 41.5523 51.0116 40.6718 50.8783C39.0436 50.6321 37.5266 50.9249 36.1207 51.7566C36.1114 51.762 36.1037 51.7698 36.0983 51.779C36.0929 51.7883 36.0901 51.7987 36.0901 51.8093V59.8286C36.0901 59.8514 36.1008 59.8662 36.1222 59.8728C37.3213 60.2521 38.6978 60.3048 39.9568 60.1936C41.2086 60.0824 42.3265 59.6411 42.8162 58.39Z" stroke="#8B8B8E" stroke-width="2"/>
<path d="M24.3418 60.0118C24.6308 60.133 24.8696 60.2029 25.0583 60.2214C26.7117 60.3826 28.2575 60.047 29.6956 59.2148C29.7162 59.2029 29.7333 59.1858 29.7452 59.1652C29.7571 59.1445 29.7633 59.1211 29.7633 59.0972V56.143C29.7633 56.1226 29.7534 56.1107 29.7334 56.1073C28.464 55.8773 27.1848 55.7889 25.8959 55.8422C25.4534 55.8607 25.0024 55.9329 24.5428 56.0589C23.6289 56.3098 23.3003 56.9742 23.2654 57.8924C23.2326 58.7422 23.4985 59.6575 24.3418 60.0118Z" stroke="#8B8B8E" stroke-width="2"/>
<path d="M0 0H73V73H0V0ZM20.9932 33.6377C20.4208 33.1123 19.5653 32.8457 18.8203 32.6725C17.5827 32.3864 16.3471 32.0941 15.1133 31.7956C14.1901 31.5732 14.1366 30.5488 14.3099 29.7981C14.6399 28.3673 16.6246 28.4614 17.7339 28.537C18.7324 28.6054 19.725 28.7366 20.7116 28.9305C20.7397 28.9362 20.7537 28.9248 20.7537 28.8963L20.753 26.4119C20.753 26.3997 20.7489 26.3879 20.7414 26.3783C20.7339 26.3688 20.7234 26.362 20.7116 26.3591C18.9855 25.9613 17.2617 25.8506 15.5403 26.0269C15.0351 26.0783 14.5363 26.1926 14.0439 26.3698C12.174 27.0421 11.5217 28.4486 11.4048 30.3314C11.3616 31.0229 11.4343 31.6654 11.623 32.259C11.9844 33.3968 12.9162 33.9935 14.0425 34.2701C15.138 34.5391 16.2347 34.8028 17.3325 35.0614C18.312 35.2917 18.8795 35.3979 18.9194 36.4815C18.975 37.9921 18.4118 38.5203 16.9304 38.5809C15.0784 38.6565 13.2583 38.4474 11.4704 37.9536C11.4457 37.9469 11.4333 37.9562 11.4333 37.9814V40.5813C11.4333 40.6074 11.4457 40.6248 11.4704 40.6333C12.8427 41.0953 14.4225 41.2464 15.8618 41.2735C17.1058 41.2963 18.2179 41.2364 19.3443 40.8565C21.6077 40.0937 22.0633 37.9422 21.8708 35.8049C21.7995 35.0172 21.5828 34.1781 20.9932 33.6377ZM28.4436 32.855C28.4404 32.855 28.4373 32.8544 28.4343 32.8531C28.4314 32.8519 28.4287 32.8501 28.4265 32.8479C28.4242 32.8456 28.4224 32.843 28.4212 32.84C28.42 32.8371 28.4194 32.8339 28.4194 32.8308L28.4187 28.7716C28.4187 28.7651 28.4212 28.759 28.4258 28.7544C28.4303 28.7499 28.4365 28.7473 28.4429 28.7473H35.4421C35.4485 28.7473 35.4547 28.7448 35.4592 28.7402C35.4638 28.7357 35.4663 28.7295 35.4663 28.7231V26.2137C35.4663 26.2073 35.4638 26.2011 35.4592 26.1966C35.4547 26.192 35.4485 26.1895 35.4421 26.1895L25.5543 26.1902C25.5478 26.1902 25.5417 26.1927 25.5371 26.1973C25.5326 26.2018 25.53 26.208 25.53 26.2144V41.0468C25.53 41.0532 25.5326 41.0594 25.5371 41.064C25.5417 41.0685 25.5478 41.0711 25.5543 41.0711H28.3944C28.4009 41.0711 28.407 41.0685 28.4116 41.064C28.4161 41.0594 28.4187 41.0532 28.4187 41.0468V35.3209C28.4187 35.3144 28.4212 35.3083 28.4258 35.3037C28.4303 35.2992 28.4365 35.2966 28.4429 35.2966H34.551C34.5574 35.2966 34.5636 35.2941 34.5681 35.2895C34.5726 35.285 34.5752 35.2788 34.5752 35.2724V32.8785C34.5752 32.8721 34.5726 32.8659 34.5681 32.8614C34.5636 32.8568 34.5574 32.8543 34.551 32.8543L28.4436 32.855ZM42.427 28.7473C42.4338 28.7473 42.4403 28.75 42.4451 28.7548C42.4499 28.7596 42.4526 28.7662 42.4526 28.773V41.0454C42.4526 41.0488 42.4533 41.0521 42.4546 41.0552C42.4559 41.0583 42.4578 41.0612 42.4602 41.0635C42.4625 41.0659 42.4654 41.0678 42.4685 41.0691C42.4716 41.0704 42.4749 41.0711 42.4783 41.0711H45.3142C45.321 41.0711 45.3275 41.0684 45.3323 41.0635C45.3371 41.0587 45.3398 41.0522 45.3398 41.0454V28.773C45.3398 28.7696 45.3405 28.7663 45.3418 28.7632C45.3431 28.76 45.345 28.7572 45.3474 28.7548C45.3497 28.7524 45.3526 28.7506 45.3557 28.7493C45.3588 28.748 45.3621 28.7473 45.3655 28.7473H49.8767C49.8835 28.7473 49.89 28.7446 49.8948 28.7398C49.8996 28.735 49.9023 28.7285 49.9023 28.7217V26.2158C49.9023 26.209 49.8996 26.2025 49.8948 26.1977C49.89 26.1929 49.8835 26.1902 49.8767 26.1902H37.9336C37.9268 26.1902 37.9203 26.1929 37.9155 26.1977C37.9107 26.2025 37.908 26.209 37.908 26.2158V28.7217C37.908 28.7285 37.9107 28.735 37.9155 28.7398C37.9203 28.7446 37.9268 28.7473 37.9336 28.7473H42.427ZM36.0901 50.524V45.6785C36.0901 45.6547 36.0782 45.6428 36.0544 45.6428H34.6287C34.6049 45.6428 34.593 45.6547 34.593 45.6785V60.97C34.593 60.9802 34.5964 60.9901 34.6028 60.9982C34.6091 61.0064 34.6179 61.0122 34.6279 61.0149C35.9677 61.3766 37.3286 61.5681 38.7107 61.5895C40.9534 61.6244 43.3701 61.2672 44.2441 58.8513C44.6662 57.6864 44.7681 56.3782 44.7375 55.1499C44.7089 53.9765 44.5942 52.8936 44.1978 51.8271C43.5241 50.015 41.8788 49.4461 40.0716 49.4689C38.6391 49.4865 37.3234 49.8446 36.1243 50.5432C36.1015 50.5565 36.0901 50.5501 36.0901 50.524ZM20.5391 60.0168C20.5391 60.0074 20.5353 59.9983 20.5287 59.9916C20.522 59.9849 20.5129 59.9812 20.5034 59.9812L13.0003 59.9819C12.9908 59.9819 12.9818 59.9781 12.9751 59.9715C12.9684 59.9648 12.9646 59.9557 12.9646 59.9463V46.5796C12.9646 46.5701 12.9609 46.561 12.9542 46.5544C12.9475 46.5477 12.9384 46.5439 12.929 46.5439L11.4697 46.5461C11.4602 46.5461 11.4512 46.5498 11.4445 46.5565C11.4378 46.5632 11.4341 46.5722 11.4341 46.5817L11.4333 61.3899C11.4333 61.3993 11.4371 61.4084 11.4438 61.4151C11.4505 61.4218 11.4595 61.4255 11.469 61.4255L20.5042 61.4227C20.5136 61.4227 20.5227 61.4189 20.5294 61.4122C20.536 61.4055 20.5398 61.3965 20.5398 61.387L20.5391 60.0168ZM29.719 54.8904C28.2248 54.6357 26.7241 54.562 25.2171 54.6694C24.9191 54.6908 24.6489 54.7284 24.4065 54.7821C22.856 55.1257 22.0597 55.825 21.8879 57.4476C21.7703 58.5597 21.8986 60.0696 22.826 60.8559C23.375 61.3214 24.1192 61.5217 24.8264 61.5709C26.5488 61.6907 28.3809 61.3029 29.7874 60.2699C29.7916 60.2667 29.7966 60.2647 29.8018 60.2642C29.8071 60.2636 29.8124 60.2645 29.8172 60.2668C29.822 60.2691 29.8261 60.2726 29.8292 60.277C29.8322 60.2815 29.8341 60.2866 29.8345 60.292L29.9029 61.3834C29.9043 61.4096 29.9184 61.4227 29.945 61.4227L31.189 61.4234C31.2308 61.4234 31.2517 61.4025 31.2517 61.3606C31.2527 58.7092 31.251 56.0448 31.2467 53.3677C31.2431 51.5014 30.4746 49.9751 28.5128 49.6015C27.8648 49.4782 27.3971 49.4653 26.6621 49.4689C25.474 49.4751 24.2868 49.6117 23.1005 49.8788C23.0868 49.8819 23.0745 49.8895 23.0657 49.9004C23.0569 49.9113 23.052 49.9248 23.052 49.9387L23.0527 51.1506C23.0532 51.1825 23.0689 51.1948 23.0998 51.1877C24.6183 50.8227 26.1027 50.7081 27.5532 50.8441C27.893 50.8759 28.2281 50.9743 28.5584 51.1392C29.9649 51.8421 29.7782 53.5637 29.7603 54.8562C29.7599 54.8838 29.7461 54.8952 29.719 54.8904ZM54.3622 55.3146C54.0162 55.1511 53.7059 55.0458 53.4312 54.9988C52.9269 54.9128 51.7238 54.7239 49.8218 54.432C49.2643 54.3472 48.771 54.1269 48.6056 53.5345C48.4797 53.084 48.4996 52.5759 48.6655 52.0104C48.8972 51.2219 49.6122 50.9695 50.3336 50.8726C50.8412 50.8041 51.3509 50.7759 51.8628 50.7878C52.8285 50.8096 53.7907 50.8868 54.7493 51.0194C54.7735 51.0228 54.7856 51.0123 54.7856 50.9881V49.7434C54.7856 49.7311 54.7812 49.7191 54.7731 49.7097C54.765 49.7003 54.7538 49.6941 54.7414 49.692C53.809 49.5466 52.8734 49.472 51.9348 49.4682C49.28 49.4575 46.9659 49.8574 47.0494 53.1581C47.0821 54.4641 47.7031 55.4693 49.049 55.686C49.577 55.7706 50.715 55.9491 52.463 56.2214C52.8273 56.2784 53.1467 56.374 53.4504 56.5272C54.2731 56.9429 54.1932 58.1904 53.9922 58.9261C53.6935 60.0204 52.5479 60.2143 51.5598 60.235C50.0513 60.2671 48.4324 60.1387 47.0123 59.6661C46.9904 59.659 46.9795 59.6666 46.9795 59.6889V61.0063C46.9795 61.0242 46.9855 61.0415 46.9965 61.0555C47.0075 61.0695 47.0228 61.0793 47.0401 61.0833C48.1446 61.3528 49.265 61.5139 50.4014 61.5667C51.7751 61.6308 53.6871 61.695 54.7528 60.6107C55.5734 59.7745 55.7174 58.2118 55.5513 57.1082C55.4244 56.2635 55.1243 55.6753 54.3622 55.3146Z" fill="#BCBCBC"/>
<path d="M18.8204 32.6726C19.5654 32.8458 20.4208 33.1124 20.9933 33.6378C21.5829 34.1782 21.7996 35.0173 21.8709 35.805C22.0633 37.9423 21.6078 40.0938 19.3444 40.8566C18.218 41.2365 17.1059 41.2964 15.8619 41.2736C14.4226 41.2465 12.8428 41.0954 11.4705 40.6334C11.4458 40.6249 11.4334 40.6075 11.4334 40.5814V37.9815C11.4334 37.9563 11.4458 37.947 11.4705 37.9537C13.2584 38.4475 15.0784 38.6566 16.9305 38.581C18.4119 38.5204 18.9751 37.9922 18.9195 36.4816C18.8796 35.398 18.3121 35.2918 17.3326 35.0615C16.2348 34.803 15.1381 34.5392 14.0426 34.2702C12.9162 33.9936 11.9845 33.3969 11.6231 32.2591C11.4344 31.6655 11.3617 31.023 11.4049 30.3315C11.5218 28.4487 12.1741 27.0422 14.044 26.3699C14.5364 26.1927 15.0352 26.0784 15.5404 26.027C17.2618 25.8507 18.9856 25.9614 20.7117 26.3592C20.7235 26.3621 20.734 26.3689 20.7415 26.3785C20.749 26.388 20.7531 26.3998 20.7531 26.412L20.7538 28.8964C20.7538 28.9249 20.7397 28.9363 20.7117 28.9306C19.7251 28.7367 18.7325 28.6056 17.734 28.5371C16.6247 28.4615 14.64 28.3674 14.3099 29.7982C14.1367 30.5489 14.1902 31.5733 15.1134 31.7957C16.3472 32.0942 17.5828 32.3865 18.8204 32.6726Z" fill="white"/>
<path d="M28.4436 32.855L34.5509 32.8543C34.5574 32.8543 34.5635 32.8568 34.5681 32.8614C34.5726 32.8659 34.5752 32.8721 34.5752 32.8785V35.2724C34.5752 35.2788 34.5726 35.285 34.5681 35.2895C34.5635 35.2941 34.5574 35.2966 34.5509 35.2966H28.4429C28.4365 35.2966 28.4303 35.2992 28.4258 35.3037C28.4212 35.3083 28.4187 35.3144 28.4187 35.3209V41.0468C28.4187 41.0532 28.4161 41.0594 28.4116 41.0639C28.407 41.0685 28.4009 41.071 28.3944 41.071H25.5543C25.5478 41.071 25.5417 41.0685 25.5371 41.0639C25.5326 41.0594 25.53 41.0532 25.53 41.0468V26.2144C25.53 26.208 25.5326 26.2018 25.5371 26.1973C25.5417 26.1927 25.5478 26.1902 25.5543 26.1902L35.4421 26.1895C35.4485 26.1895 35.4547 26.192 35.4592 26.1966C35.4637 26.2011 35.4663 26.2073 35.4663 26.2137V28.7231C35.4663 28.7295 35.4637 28.7357 35.4592 28.7402C35.4547 28.7448 35.4485 28.7473 35.4421 28.7473H28.4429C28.4365 28.7473 28.4303 28.7499 28.4258 28.7544C28.4212 28.7589 28.4187 28.7651 28.4187 28.7715L28.4194 32.8307C28.4194 32.8339 28.42 32.8371 28.4212 32.84C28.4224 32.843 28.4242 32.8456 28.4265 32.8479C28.4287 32.8501 28.4314 32.8519 28.4343 32.8531C28.4373 32.8544 28.4404 32.855 28.4436 32.855Z" fill="white"/>
<path d="M42.427 28.7471H37.9336C37.9268 28.7471 37.9203 28.7444 37.9155 28.7396C37.9107 28.7348 37.908 28.7282 37.908 28.7214V26.2156C37.908 26.2088 37.9107 26.2023 37.9155 26.1975C37.9203 26.1926 37.9268 26.1899 37.9336 26.1899H49.8767C49.8835 26.1899 49.89 26.1926 49.8948 26.1975C49.8996 26.2023 49.9023 26.2088 49.9023 26.2156V28.7214C49.9023 28.7282 49.8996 28.7348 49.8948 28.7396C49.89 28.7444 49.8835 28.7471 49.8767 28.7471H45.3655C45.3621 28.7471 45.3588 28.7477 45.3557 28.749C45.3526 28.7503 45.3497 28.7522 45.3474 28.7546C45.345 28.757 45.3431 28.7598 45.3418 28.7629C45.3405 28.766 45.3398 28.7694 45.3398 28.7727V41.0452C45.3398 41.052 45.3371 41.0585 45.3323 41.0633C45.3275 41.0681 45.321 41.0708 45.3142 41.0708H42.4783C42.4749 41.0708 42.4716 41.0702 42.4685 41.0689C42.4654 41.0676 42.4625 41.0657 42.4602 41.0633C42.4578 41.0609 42.4559 41.0581 42.4546 41.055C42.4533 41.0519 42.4526 41.0485 42.4526 41.0452V28.7727C42.4526 28.7659 42.4499 28.7594 42.4451 28.7546C42.4403 28.7498 42.4338 28.7471 42.427 28.7471Z" fill="white"/>
<path d="M36.1243 50.543C37.3234 49.8444 38.6391 49.4862 40.0716 49.4687C41.8788 49.4458 43.5241 50.0147 44.1978 51.8269C44.5942 52.8934 44.7089 53.9763 44.7375 55.1497C44.7681 56.378 44.6662 57.6862 44.2441 58.851C43.3701 61.267 40.9534 61.6242 38.7107 61.5892C37.3286 61.5678 35.9677 61.3763 34.6279 61.0146C34.6179 61.012 34.6091 61.0061 34.6028 60.998C34.5964 60.9899 34.593 60.9799 34.593 60.9697V45.6782C34.593 45.6545 34.6049 45.6426 34.6287 45.6426H36.0544C36.0782 45.6426 36.0901 45.6545 36.0901 45.6782V50.5237C36.0901 50.5499 36.1015 50.5563 36.1243 50.543ZM42.8162 58.3898C43.2275 57.3383 43.2903 56.0893 43.2418 54.9615C43.2012 54.0034 43.1035 53.0253 42.7157 52.2425C42.3072 51.4184 41.5523 51.0114 40.6718 50.878C39.0436 50.6319 37.5266 50.9246 36.1207 51.7563C36.1114 51.7618 36.1037 51.7695 36.0983 51.7788C36.0929 51.788 36.0901 51.7985 36.0901 51.8091V59.8284C36.0901 59.8512 36.1008 59.8659 36.1222 59.8726C37.3213 60.2518 38.6978 60.3046 39.9568 60.1934C41.2086 60.0822 42.3265 59.6409 42.8162 58.3898Z" fill="white"/>
<path d="M20.5391 60.0169L20.5398 61.387C20.5398 61.3965 20.5361 61.4056 20.5294 61.4122C20.5227 61.4189 20.5136 61.4227 20.5042 61.4227L11.469 61.4255C11.4595 61.4255 11.4505 61.4218 11.4438 61.4151C11.4371 61.4084 11.4333 61.3993 11.4333 61.3899L11.4341 46.5817C11.4341 46.5723 11.4378 46.5632 11.4445 46.5565C11.4512 46.5498 11.4603 46.5461 11.4697 46.5461L12.929 46.5439C12.9384 46.5439 12.9475 46.5477 12.9542 46.5544C12.9609 46.5611 12.9646 46.5701 12.9646 46.5796V59.9463C12.9646 59.9557 12.9684 59.9648 12.9751 59.9715C12.9818 59.9782 12.9908 59.9819 13.0003 59.9819L20.5035 59.9812C20.5129 59.9812 20.522 59.985 20.5287 59.9917C20.5353 59.9983 20.5391 60.0074 20.5391 60.0169Z" fill="white"/>
<path d="M29.7604 54.8561C29.7782 53.5636 29.965 51.842 28.5585 51.1391C28.2282 50.9741 27.8931 50.8758 27.5533 50.8439C26.1028 50.708 24.6183 50.8225 23.0999 51.1875C23.069 51.1947 23.0533 51.1823 23.0528 51.1505L23.0521 49.9386C23.0521 49.9246 23.057 49.9111 23.0658 49.9002C23.0746 49.8893 23.0869 49.8817 23.1006 49.8787C24.2869 49.6116 25.4741 49.4749 26.6622 49.4688C27.3972 49.4652 27.8648 49.478 28.5129 49.6014C30.4747 49.9749 31.2432 51.5012 31.2468 53.3676C31.2511 56.0447 31.2527 58.709 31.2518 61.3605C31.2518 61.4023 31.2309 61.4232 31.1891 61.4232L29.9451 61.4225C29.9184 61.4225 29.9044 61.4094 29.903 61.3833L29.8346 60.2919C29.8342 60.2865 29.8323 60.2813 29.8293 60.2769C29.8262 60.2725 29.8221 60.2689 29.8173 60.2667C29.8125 60.2644 29.8071 60.2635 29.8019 60.264C29.7967 60.2646 29.7917 60.2666 29.7875 60.2698C28.381 61.3027 26.5489 61.6906 24.8265 61.5708C24.1193 61.5216 23.3751 61.3213 22.8261 60.8558C21.8987 60.0694 21.7703 58.5595 21.888 57.4474C22.0598 55.8249 22.8561 55.1255 24.4066 54.7819C24.649 54.7282 24.9192 54.6907 25.2172 54.6693C26.7242 54.5619 28.2249 54.6356 29.7191 54.8903C29.7462 54.895 29.7599 54.8836 29.7604 54.8561ZM24.3417 60.0117C24.6307 60.1329 24.8695 60.2028 25.0582 60.2213C26.7116 60.3824 28.2574 60.0469 29.6956 59.2147C29.7161 59.2028 29.7332 59.1857 29.7451 59.165C29.757 59.1444 29.7633 59.1209 29.7633 59.0971V56.1428C29.7633 56.1224 29.7533 56.1105 29.7333 56.1072C28.4639 55.8772 27.1848 55.7888 25.8958 55.842C25.4534 55.8605 25.0024 55.9328 24.5428 56.0587C23.6289 56.3097 23.3002 56.9741 23.2653 57.8923C23.2325 58.742 23.4984 59.6574 24.3417 60.0117Z" fill="white"/>
<path d="M54.3622 55.3144C55.1243 55.6751 55.4244 56.2633 55.5513 57.108C55.7174 58.2116 55.5734 59.7742 54.7528 60.6105C53.6871 61.6948 51.7751 61.6306 50.4014 61.5664C49.265 61.5137 48.1446 61.3526 47.0401 61.0831C47.0228 61.0791 47.0075 61.0693 46.9965 61.0553C46.9855 61.0413 46.9795 61.024 46.9795 61.0061V59.6887C46.9795 59.6664 46.9904 59.6588 47.0123 59.6659C48.4324 60.1385 50.0513 60.2668 51.5598 60.2348C52.5479 60.2141 53.6935 60.0202 53.9922 58.9259C54.1932 58.1902 54.2731 56.9426 53.4504 56.527C53.1467 56.3737 52.8273 56.2782 52.463 56.2212C50.715 55.9489 49.577 55.7704 49.049 55.6858C47.7031 55.4691 47.0821 54.4639 47.0494 53.1579C46.9659 49.8572 49.28 49.4573 51.9348 49.468C52.8734 49.4718 53.809 49.5464 54.7414 49.6918C54.7538 49.6938 54.765 49.7001 54.7731 49.7095C54.7812 49.7189 54.7856 49.7308 54.7856 49.7432V50.9879C54.7856 51.0121 54.7735 51.0226 54.7493 51.0192C53.7907 50.8866 52.8285 50.8094 51.8628 50.7875C51.3509 50.7757 50.8412 50.8039 50.3336 50.8724C49.6122 50.9693 48.8972 51.2217 48.6655 52.0101C48.4996 52.5757 48.4797 53.0838 48.6056 53.5343C48.771 54.1267 49.2643 54.347 49.8218 54.4318C51.7238 54.7236 52.9269 54.9126 53.4312 54.9986C53.7059 55.0456 54.0162 55.1509 54.3622 55.3144Z" fill="white"/>
<path d="M42.8162 58.39C42.3265 59.6411 41.2086 60.0824 39.9568 60.1936C38.6978 60.3048 37.3213 60.2521 36.1222 59.8728C36.1008 59.8662 36.0901 59.8514 36.0901 59.8286V51.8093C36.0901 51.7987 36.0929 51.7883 36.0983 51.779C36.1037 51.7698 36.1114 51.762 36.1207 51.7566C37.5266 50.9249 39.0436 50.6321 40.6718 50.8783C41.5523 51.0116 42.3072 51.4187 42.7157 52.2428C43.1035 53.0255 43.2012 54.0036 43.2418 54.9617C43.2903 56.0895 43.2275 57.3385 42.8162 58.39Z" fill="#BCBCBC"/>
<path d="M24.3416 60.0118C23.4982 59.6575 23.2323 58.7422 23.2651 57.8924C23.3 56.9742 23.6287 56.3098 24.5426 56.0589C25.0022 55.9329 25.4532 55.8607 25.8957 55.8422C27.1846 55.7889 28.4637 55.8773 29.7332 56.1073C29.7531 56.1107 29.7631 56.1226 29.7631 56.143V59.0972C29.7631 59.1211 29.7568 59.1445 29.7449 59.1652C29.7331 59.1858 29.716 59.2029 29.6954 59.2148C28.2572 60.047 26.7115 60.3826 25.058 60.2214C24.8693 60.2029 24.6305 60.133 24.3416 60.0118Z" fill="#BCBCBC"/>
</g>
<defs>
<clipPath id="clip0_624_842">
<rect width="73" height="73" fill="white"/>
</clipPath>
</defs>
</svg>
