<svg width="221" height="114" viewBox="0 0 221 114" fill="none" xmlns="http://www.w3.org/2000/svg">
<rect width="221" height="114" rx="20" fill="#EDEDED"/>
<path d="M89.8789 67.7288C90.7605 70.6221 92.6808 72.3807 96.4677 72.3807C99.5816 72.3807 101.811 70.9866 101.811 68.5554C101.811 66.1244 99.2181 65.3514 95.3773 64.422L93.457 63.9059C88.9432 62.82 85.5692 60.8047 85.5692 56.1013C85.5692 51.398 89.928 48.1426 95.9986 48.1426C102.069 48.1426 105.962 50.7254 106.583 56.0499H101.603C100.824 53.6213 99.007 52.2785 95.844 52.2785C92.5238 52.2785 90.9153 53.6213 90.9153 55.6365C90.9153 57.8574 92.5238 58.4786 95.844 59.4618L98.749 60.2886C104.198 61.8391 107.052 63.4927 107.052 68.0395C107.052 73.2588 102.538 76.6169 96.3105 76.6169C89.6678 76.6169 85.778 73.7748 84.6875 67.7288H89.8764H89.8789Z" fill="black"/>
<path d="M137.409 62.5094C137.409 70.7787 132.271 76.6683 123.554 76.6683C114.836 76.6683 109.855 70.7763 109.855 62.5094C109.855 54.2424 115.148 48.1426 123.656 48.1426C132.166 48.1426 137.406 54.0859 137.406 62.5094H137.409ZM115.408 62.4581C115.408 68.5042 118.313 72.3295 123.502 72.3295C128.691 72.3295 131.647 68.5042 131.647 62.4581C131.647 56.4119 128.639 52.4839 123.502 52.4839C118.365 52.4839 115.408 56.6687 115.408 62.4581Z" fill="black"/>
<path d="M142.184 39.0488H147.424V75.998H142.184V39.0488Z" fill="black"/>
<path d="M161.072 75.9978L150.902 48.8662H156.87L161.125 61.2176L164.134 70.365H164.237C165.482 66.5912 166.364 64.6296 167.609 60.6503L171.604 48.8687H177.26L166.779 76.0002H161.072V75.9978Z" fill="black"/>
<path d="M57.3442 39.7794L44.7843 52.2886C43.7985 53.2706 43.7985 54.8625 44.7843 55.8444C45.7702 56.8263 47.3686 56.8263 48.3545 55.8444L60.9144 43.3352C61.9003 42.3533 61.9003 40.7613 60.9144 39.7794C59.9285 38.7975 58.33 38.7975 57.3442 39.7794Z" fill="black"/>
<path d="M67.8052 50.1973L55.2453 62.7066C54.2594 63.6885 54.2594 65.2805 55.2453 66.2624C56.2312 67.2442 57.8296 67.2442 58.8155 66.2624L71.3753 53.7531C72.3612 52.7713 72.3612 51.1792 71.3753 50.1973C70.3894 49.2155 68.7911 49.2155 67.8052 50.1973Z" fill="black"/>
<path d="M58.8032 48.7384L46.2433 61.2475C45.2574 62.2295 45.2574 63.8215 46.2433 64.8035C47.2292 65.7853 48.8276 65.7853 49.8135 64.8035L62.3733 52.2942C63.3592 51.3122 63.3592 49.7202 62.3733 48.7384C61.3874 47.7565 59.7891 47.7565 58.8032 48.7384Z" fill="black"/>
<path d="M69.2641 59.1563L56.7043 71.6655C55.7184 72.6474 55.7184 74.2395 56.7043 75.2213C57.6901 76.2032 59.2885 76.2032 60.2744 75.2213L72.8342 62.7121C73.8201 61.7302 73.8201 60.1383 72.8342 59.1563C71.8484 58.1745 70.25 58.1745 69.2641 59.1563Z" fill="black"/>
</svg>
