<svg width="201" height="61" viewBox="0 0 201 61" fill="none" xmlns="http://www.w3.org/2000/svg">
<path d="M13.5205 10.2749C13.4123 10.3419 13.3647 10.3666 13.3224 10.3983C10.6014 12.4361 7.88217 14.476 5.15744 16.5087C5.00294 16.6241 4.9648 16.7482 4.96726 16.9232C4.97806 17.6992 4.98503 18.4753 4.98516 19.2513C4.9864 25.6354 4.98312 32.0197 4.98735 38.4038C4.98886 40.7079 6.63704 42.5123 8.9095 42.7189C11.1027 42.9183 13.1297 41.3299 13.4544 39.1503C13.4945 38.8813 13.5124 38.6067 13.5124 38.3347C13.5147 31.5679 13.5123 24.8013 13.5125 18.0345C13.5127 15.5859 13.5176 13.1372 13.5203 10.6887C13.5205 10.5711 13.5205 10.4535 13.5205 10.2749ZM10.0667 47.6934C10.1445 47.7472 10.2189 47.8068 10.3004 47.8543C12.8638 49.3495 15.6001 49.7866 18.4813 49.0867C23.4326 47.8839 26.8268 43.5172 26.8272 38.4155C26.8276 32.0208 26.8272 25.626 26.8272 19.2312C26.8272 17.2963 26.8275 15.3616 26.8265 13.4267C26.8264 13.3236 26.8149 13.2205 26.8059 13.0691C26.6801 13.1486 26.5978 13.1953 26.5211 13.25C23.9304 15.0949 21.3426 16.944 18.746 18.7806C18.5127 18.9455 18.4337 19.1153 18.4341 19.3962C18.4423 25.7036 18.4423 32.0109 18.4369 38.3183C18.4364 38.7979 18.4252 39.284 18.3502 39.7561C17.8596 42.8427 16.233 45.1397 13.487 46.6323C12.4287 47.2074 11.284 47.5181 10.0667 47.6934ZM40.1671 15.4298C40.0049 15.5368 39.9054 15.5985 39.8101 15.6662C37.2262 17.5014 34.6449 19.34 32.0555 21.1675C31.8341 21.3237 31.7516 21.4821 31.752 21.7537C31.7604 27.2516 31.7599 32.7496 31.7558 38.2475C31.7554 38.7605 31.7346 39.2747 31.6967 39.7863C31.5415 41.8836 30.9668 43.8647 30.0053 45.7329C27.3012 50.988 21.7491 54.5137 15.4478 54.3222C15.336 54.3189 15.224 54.3218 15.1122 54.3218C15.2024 54.4176 15.2968 54.4669 15.3938 54.5096C18.926 56.0675 22.5835 56.4437 26.354 55.6293C34.3785 53.8962 40.1612 46.7215 40.1616 38.5194C40.1617 33.4805 40.1611 28.4416 40.1619 23.4027C40.1622 21.2714 40.1653 19.14 40.1669 17.0087C40.1674 16.5069 40.1671 16.0052 40.1671 15.4298ZM18.3695 4.48321e-07C18.3712 1.33345 18.3741 2.66704 18.3746 4.00049C18.3755 6.52547 18.3748 9.05046 18.3748 11.5756C18.3748 11.6915 18.3748 11.8075 18.3748 11.997C19.1812 11.4696 19.8992 10.9441 20.6291 10.4361C21.3735 9.91796 22.1154 9.39595 22.8585 8.87573C23.5925 8.36192 24.3269 7.84826 25.0609 7.33418C25.7948 6.81997 26.5284 6.30521 27.2623 5.791C28.0052 5.27063 28.7484 4.75068 29.4917 4.23073C30.224 3.71829 30.9564 3.20613 31.7469 2.65323C31.768 3.09798 31.7555 3.48395 31.7578 3.86896C31.7602 4.27338 31.7583 4.67781 31.7583 5.08223C31.7583 5.47586 31.7583 5.86934 31.7583 6.26283C31.7583 6.66725 31.7583 7.07168 31.7583 7.4761C31.7583 7.86959 31.7583 8.26307 31.7583 8.6567C31.7583 9.05018 31.7583 9.44368 31.7583 9.83716C31.7583 10.2416 31.7583 10.646 31.7583 11.0504C31.7583 11.4439 31.7583 11.8375 31.7583 12.231C31.7583 12.6355 31.7583 13.0399 31.7583 13.4443C31.7583 13.8342 31.7583 14.224 31.7583 14.6844C31.9402 14.5708 32.077 14.4945 32.204 14.4046C33.7112 13.3372 35.2154 12.2659 36.7233 11.1996C39.4002 9.30668 42.079 7.41649 44.7574 5.52548C44.837 5.46943 44.9198 5.41816 45.0319 5.34433C45.0468 5.43716 45.0635 5.50429 45.0672 5.57211C45.0725 5.67014 45.0686 5.76872 45.0686 5.86716C45.0686 16.776 45.0325 27.685 45.0807 38.5937C45.1155 46.4296 40.6813 54.5397 32.7293 58.5641C30.4471 59.719 28.0345 60.4536 25.5003 60.7889C25.0131 60.8534 24.522 60.889 24.033 60.9417C23.9375 60.9521 23.8437 60.9802 23.7492 61C22.9618 61 22.1746 61 21.3873 61C21.2826 60.9788 21.1787 60.9472 21.0729 60.9381C19.7545 60.8235 18.447 60.6412 17.1611 60.3214C10.446 58.6521 4.86294 53.9882 2.02472 47.6726C0.939691 45.2583 0.30243 42.7306 0.116214 40.089C0.100354 39.8645 0.0397862 39.6432 0 39.4204C0 30.7405 0 22.0605 0 13.3806C0.0926977 13.3237 0.189908 13.2731 0.277273 13.209C6.19817 8.87299 12.1182 4.53589 18.0374 0.197286C18.1123 0.142324 18.1716 0.066174 18.2383 4.48321e-07C18.2821 4.48321e-07 18.3258 4.48321e-07 18.3695 4.48321e-07Z" fill="#BCBCBC"/>
<path d="M56.3441 17.4898C58.1706 17.4898 59.9591 17.4898 61.7842 17.4898C61.7896 17.6235 61.7992 17.7497 61.7993 17.8759C61.8002 19.9855 61.7999 22.095 61.7999 24.2046C61.7999 29.0796 61.7999 33.9545 61.8 38.8295C61.8 39.752 61.9052 40.6619 62.1525 41.5512C62.7832 43.8186 64.2661 45.2442 66.5016 45.9089C67.5374 46.2168 68.6021 46.3004 69.6795 46.2687C70.6133 46.2414 71.533 46.1247 72.4177 45.8188C74.7218 45.0221 76.1002 43.4034 76.6239 41.0377C76.7946 40.2659 76.8559 39.4826 76.856 38.694C76.8566 31.7751 76.8563 24.8561 76.8563 17.9373C76.8563 17.7977 76.8563 17.6581 76.8563 17.4951C78.6873 17.4951 80.4838 17.4951 82.3023 17.4951C82.3099 17.6013 82.3226 17.6958 82.3226 17.7904C82.3234 24.8186 82.3321 31.8468 82.3172 38.8752C82.3134 40.693 82.0133 42.4696 81.2542 44.1379C79.9701 46.9598 77.8632 48.9195 74.9748 50.0417C72.9272 50.8374 70.8002 51.1316 68.6126 51.0552C66.828 50.9929 65.0956 50.674 63.4389 49.9989C59.8949 48.5546 57.6962 45.9393 56.7485 42.2536C56.4644 41.1483 56.3445 40.0189 56.3444 38.8778C56.3437 31.8714 56.3441 24.865 56.3441 17.8586C56.3441 17.7417 56.3441 17.6247 56.3441 17.4898Z" fill="#BCBCBC"/>
<path d="M167.484 37.7039C167.493 36.5949 167.401 35.3976 167.028 34.2426C166.324 32.0641 165.021 30.3837 162.906 29.4045C162.014 28.9922 161.075 28.7604 160.095 28.6999C158.328 28.5909 156.685 28.9752 155.2 29.9509C153.915 30.7953 153.064 31.9968 152.474 33.3941C152.054 34.3898 151.86 35.4393 151.785 36.5141C151.681 37.9742 151.771 39.419 152.148 40.836C152.526 42.2462 153.187 43.498 154.28 44.4938C156.037 46.0956 158.131 46.6559 160.441 46.347C163.319 45.962 165.399 44.4151 166.645 41.7809C167.24 40.5242 167.439 39.1783 167.484 37.7039ZM146.187 37.6005C146.193 35.3979 146.544 33.3096 147.472 31.3476C149.28 27.5336 152.285 25.1943 156.38 24.2839C159.205 23.6559 162.02 23.79 164.738 24.8219C168.958 26.4239 171.579 29.4937 172.655 33.8442C173.376 36.7598 173.298 39.6948 172.248 42.5281C170.665 46.8001 167.602 49.5184 163.212 50.6845C160.312 51.4548 157.396 51.3892 154.564 50.3494C150.538 48.8701 147.981 45.984 146.764 41.8941C146.343 40.4807 146.198 39.0253 146.187 37.6005Z" fill="#BCBCBC"/>
<path d="M182.008 50.7192C180.179 50.7192 178.383 50.7192 176.567 50.7192C176.567 41.9389 176.567 33.1783 176.567 24.3955C178.373 24.3955 180.163 24.3955 181.993 24.3955C182.033 25.3434 181.988 26.2982 182.019 27.3032C182.104 27.2355 182.155 27.2049 182.192 27.1625C183.644 25.5314 185.48 24.5753 187.596 24.1634C190.027 23.6901 192.412 23.9025 194.695 24.8876C197.618 26.1479 199.391 28.3985 200.223 31.4321C200.53 32.5565 200.641 33.7052 200.64 34.87C200.634 40.0404 200.637 45.211 200.637 50.3815C200.637 50.4883 200.637 50.5952 200.637 50.7217C198.836 50.7217 197.07 50.7217 195.265 50.7217C195.261 50.5757 195.253 50.4384 195.253 50.3013C195.253 45.4914 195.253 40.6816 195.253 35.8719C195.253 34.6925 195.108 33.5351 194.651 32.4396C193.803 30.4016 192.272 29.1912 190.105 28.8035C188.783 28.5668 187.464 28.6198 186.188 29.0642C184.125 29.7829 182.873 31.2548 182.32 33.3478C182.082 34.2528 182.011 35.1783 182.01 36.1091C182.007 40.8315 182.008 45.5537 182.008 50.2761C182.008 50.4165 182.008 50.5569 182.008 50.7192Z" fill="#BCBCBC"/>
<path d="M92.9626 50.7231C91.1311 50.7231 89.3426 50.7231 87.5305 50.7231C87.5305 41.9428 87.5305 33.1751 87.5305 24.3903C89.3355 24.3903 91.1245 24.3903 92.9585 24.3903C92.9585 25.3497 92.9585 26.3018 92.9585 27.3196C93.0552 27.2364 93.0974 27.2079 93.1303 27.1708C94.4915 25.6404 96.198 24.687 98.1791 24.2457C101.017 23.6134 103.766 23.8925 106.365 25.2384C108.781 26.4891 110.277 28.5029 111.065 31.0707C111.46 32.3545 111.613 33.6761 111.614 35.0162C111.615 40.1313 111.614 45.2463 111.614 50.3615C111.614 50.4695 111.614 50.5775 111.614 50.6773C111.349 50.7571 106.552 50.7677 106.21 50.6909C106.21 50.5677 106.21 50.4381 106.21 50.3085C106.21 45.5431 106.211 40.7777 106.209 36.0124C106.208 34.8809 106.094 33.7621 105.695 32.694C104.87 30.4878 103.287 29.185 100.966 28.79C99.797 28.5911 98.6289 28.6245 97.4895 28.9531C95.2901 29.5878 93.9081 31.0457 93.2968 33.2402C93.052 34.1189 92.9622 35.02 92.9624 35.9312C92.963 40.7074 92.9626 45.4837 92.9626 50.2599C92.9626 50.4012 92.9626 50.5424 92.9626 50.7231Z" fill="#BCBCBC"/>
<path d="M132.291 46.2844C136.23 46.2844 140.17 46.2844 144.128 46.2844C144.128 47.7797 144.128 49.2394 144.128 50.7202C138.055 50.7202 131.993 50.7202 125.907 50.7202C125.896 50.6324 125.879 50.5499 125.879 50.4674C125.877 49.1449 125.881 47.8225 125.873 46.5001C125.872 46.2955 125.959 46.1489 126.064 45.995C129.447 41.0798 132.827 36.1638 136.207 31.2481C136.689 30.5458 137.173 29.8438 137.656 29.1409C137.715 29.0545 137.768 28.9637 137.855 28.8229C133.84 28.8229 129.88 28.8229 125.898 28.8229C125.898 27.3272 125.898 25.8701 125.898 24.3933C131.976 24.3933 138.039 24.3933 144.125 24.3933C144.132 24.4936 144.145 24.5884 144.145 24.683C144.146 25.9727 144.141 27.2624 144.15 28.5519C144.151 28.7756 144.075 28.9458 143.953 29.1218C140.327 34.4117 136.703 39.7037 133.078 44.9954C132.802 45.3997 132.526 45.8046 132.25 46.2092C132.263 46.2342 132.277 46.2594 132.291 46.2844Z" fill="#BCBCBC"/>
<path d="M116.665 25.2527C118.482 25.2527 120.27 25.2527 122.057 25.2527C122.125 25.5049 122.136 50.3928 122.067 50.7168C120.272 50.7168 118.475 50.7168 116.665 50.7168C116.665 42.2266 116.665 33.7606 116.665 25.2527Z" fill="#BCBCBC"/>
<path d="M116.513 21.8784C116.513 19.9185 116.513 17.9805 116.513 16.0249C118.467 16.0249 120.404 16.0249 122.355 16.0249C122.355 17.9818 122.355 19.9199 122.355 21.8784C120.411 21.8784 118.483 21.8784 116.513 21.8784Z" fill="#BCBCBC"/>
</svg>
