<svg width="221" height="114" viewBox="0 0 221 114" fill="none" xmlns="http://www.w3.org/2000/svg">
<rect width="221" height="114" rx="20" fill="#EDEDED"/>
<g clip-path="url(#clip0_396_74)">
<mask id="mask0_396_74" style="mask-type:luminance" maskUnits="userSpaceOnUse" x="74" y="20" width="73" height="73">
<path d="M147 20H74V93H147V20Z" fill="white"/>
</mask>
<g mask="url(#mask0_396_74)">
<path d="M94.9931 53.6378C94.4206 53.1124 93.5652 52.8458 92.8202 52.6726C91.5826 52.3865 90.347 52.0942 89.1132 51.7957C88.19 51.5733 88.1365 50.5489 88.3097 49.7982C88.6398 48.3674 90.6245 48.4615 91.7338 48.5371C92.7323 48.6056 93.7249 48.7367 94.7115 48.9306C94.7395 48.9363 94.7536 48.9249 94.7536 48.8964L94.7529 46.412C94.7529 46.3998 94.7488 46.388 94.7413 46.3785C94.7338 46.3689 94.7233 46.3621 94.7115 46.3592C92.9854 45.9614 91.2616 45.8507 89.5402 46.027C89.035 46.0784 88.5362 46.1927 88.0438 46.3699C86.1739 47.0422 85.5216 48.4487 85.4047 50.3315C85.3615 51.023 85.4342 51.6655 85.6229 52.2591C85.9843 53.3969 86.916 53.9936 88.0424 54.2702C89.1379 54.5392 90.2346 54.803 91.3324 55.0615C92.3119 55.2918 92.8794 55.398 92.9193 56.4816C92.9749 57.9922 92.4117 58.5204 90.9303 58.581C89.0782 58.6566 87.2582 58.4475 85.4703 57.9537C85.4456 57.947 85.4332 57.9563 85.4332 57.9815V60.5814C85.4332 60.6075 85.4456 60.6249 85.4703 60.6334C86.8426 61.0954 88.4224 61.2465 89.8617 61.2736C91.1057 61.2964 92.2178 61.2365 93.3442 60.8566C95.6076 60.0938 96.0631 57.9423 95.8707 55.805C95.7994 55.0173 95.5827 54.1782 94.9931 53.6378Z" stroke="black" stroke-width="2"/>
<path d="M102.443 52.855C102.44 52.855 102.437 52.8544 102.434 52.8531C102.431 52.8519 102.428 52.8501 102.426 52.8479C102.423 52.8456 102.422 52.843 102.42 52.84C102.419 52.8371 102.419 52.8339 102.419 52.8307L102.418 48.7715C102.418 48.7651 102.42 48.7589 102.425 48.7544C102.43 48.7499 102.436 48.7473 102.442 48.7473H109.441C109.448 48.7473 109.454 48.7448 109.458 48.7402C109.463 48.7357 109.466 48.7295 109.466 48.7231V46.2137C109.466 46.2073 109.463 46.2011 109.458 46.1966C109.454 46.192 109.448 46.1895 109.441 46.1895L99.5536 46.1902C99.5471 46.1902 99.541 46.1927 99.5364 46.1973C99.5319 46.2018 99.5293 46.208 99.5293 46.2144V61.0468C99.5293 61.0532 99.5319 61.0594 99.5364 61.0639C99.541 61.0685 99.5471 61.071 99.5536 61.071H102.394C102.4 61.071 102.406 61.0685 102.411 61.0639C102.415 61.0594 102.418 61.0532 102.418 61.0468V55.3209C102.418 55.3144 102.42 55.3083 102.425 55.3037C102.43 55.2992 102.436 55.2966 102.442 55.2966H108.55C108.557 55.2966 108.563 55.2941 108.567 55.2895C108.572 55.285 108.574 55.2788 108.574 55.2724V52.8785C108.574 52.8721 108.572 52.8659 108.567 52.8614C108.563 52.8568 108.557 52.8543 108.55 52.8543L102.443 52.855Z" stroke="black" stroke-width="2"/>
<path d="M116.427 48.7476C116.434 48.7476 116.441 48.7503 116.445 48.7551C116.45 48.7599 116.453 48.7664 116.453 48.7732V61.0456C116.453 61.049 116.454 61.0524 116.455 61.0555C116.456 61.0586 116.458 61.0614 116.46 61.0638C116.463 61.0662 116.466 61.0681 116.469 61.0694C116.472 61.0706 116.475 61.0713 116.479 61.0713H119.314C119.321 61.0713 119.328 61.0686 119.333 61.0638C119.337 61.059 119.34 61.0525 119.34 61.0456V48.7732C119.34 48.7699 119.341 48.7665 119.342 48.7634C119.343 48.7603 119.345 48.7575 119.348 48.7551C119.35 48.7527 119.353 48.7508 119.356 48.7495C119.359 48.7482 119.362 48.7476 119.366 48.7476H123.877C123.884 48.7476 123.89 48.7449 123.895 48.7401C123.9 48.7352 123.903 48.7287 123.903 48.7219V46.2161C123.903 46.2093 123.9 46.2028 123.895 46.1979C123.89 46.1931 123.884 46.1904 123.877 46.1904H111.934C111.927 46.1904 111.921 46.1931 111.916 46.1979C111.911 46.2028 111.908 46.2093 111.908 46.2161V48.7219C111.908 48.7287 111.911 48.7352 111.916 48.7401C111.921 48.7449 111.927 48.7476 111.934 48.7476H116.427Z" stroke="black" stroke-width="2"/>
<path d="M110.091 70.5242V65.6787C110.091 65.6549 110.079 65.6431 110.055 65.6431H108.629C108.606 65.6431 108.594 65.6549 108.594 65.6787V80.9702C108.594 80.9804 108.597 80.9904 108.604 80.9985C108.61 81.0066 108.619 81.0125 108.629 81.0151C109.968 81.3768 111.329 81.5683 112.711 81.5897C114.954 81.6246 117.371 81.2675 118.245 78.8515C118.667 77.6866 118.769 76.3785 118.738 75.1502C118.71 73.9768 118.595 72.8939 118.199 71.8274C117.525 70.0152 115.88 69.4463 114.072 69.4691C112.64 69.4867 111.324 69.8448 110.125 70.5435C110.102 70.5568 110.091 70.5504 110.091 70.5242Z" stroke="black" stroke-width="2"/>
<path d="M94.5394 80.0169C94.5394 80.0074 94.5356 79.9983 94.529 79.9917C94.5223 79.985 94.5132 79.9812 94.5038 79.9812L87.0006 79.9819C86.9911 79.9819 86.9821 79.9782 86.9754 79.9715C86.9687 79.9648 86.9649 79.9557 86.9649 79.9463V66.5796C86.9649 66.5701 86.9612 66.5611 86.9545 66.5544C86.9478 66.5477 86.9387 66.5439 86.9293 66.5439L85.47 66.5461C85.4606 66.5461 85.4515 66.5498 85.4448 66.5565C85.4381 66.5632 85.4344 66.5723 85.4344 66.5817L85.4336 81.3899C85.4336 81.3993 85.4374 81.4084 85.4441 81.4151C85.4508 81.4218 85.4598 81.4255 85.4693 81.4255L94.5045 81.4227C94.5139 81.4227 94.523 81.4189 94.5297 81.4122C94.5364 81.4056 94.5401 81.3965 94.5401 81.387L94.5394 80.0169Z" stroke="black" stroke-width="2"/>
<path d="M103.719 74.8908C102.225 74.636 100.724 74.5624 99.2174 74.6698C98.9194 74.6912 98.6492 74.7287 98.4068 74.7824C96.8563 75.126 96.06 75.8254 95.8882 77.4479C95.7705 78.56 95.8989 80.0699 96.8263 80.8563C97.3753 81.3218 98.1195 81.5221 98.8267 81.5713C100.549 81.691 102.381 81.3032 103.788 80.2703C103.792 80.2671 103.797 80.2651 103.802 80.2645C103.807 80.264 103.813 80.2649 103.818 80.2672C103.822 80.2694 103.826 80.2729 103.83 80.2774C103.833 80.2818 103.834 80.287 103.835 80.2924L103.903 81.3838C103.905 81.4099 103.919 81.423 103.945 81.423L105.189 81.4237C105.231 81.4237 105.252 81.4028 105.252 81.361C105.253 78.7095 105.251 76.0452 105.247 73.368C105.243 71.5017 104.475 69.9754 102.513 69.6018C101.865 69.4785 101.397 69.4657 100.662 69.4692C99.4743 69.4754 98.2871 69.6121 97.1008 69.8792C97.0871 69.8822 97.0748 69.8898 97.066 69.9007C97.0572 69.9116 97.0523 69.9251 97.0523 69.939L97.053 71.151C97.0535 71.1828 97.0692 71.1952 97.1001 71.188C98.6185 70.823 100.103 70.7085 101.554 70.8444C101.893 70.8763 102.228 70.9746 102.559 71.1395C103.965 71.8425 103.778 73.5641 103.761 74.8566C103.76 74.8841 103.746 74.8955 103.719 74.8908Z" stroke="black" stroke-width="2"/>
<path d="M128.363 75.3149C128.017 75.1514 127.707 75.0461 127.432 74.9991C126.928 74.913 125.725 74.7241 123.823 74.4323C123.265 74.3475 122.772 74.1272 122.607 73.5348C122.481 73.0842 122.501 72.5762 122.666 72.0106C122.898 71.2222 123.613 70.9698 124.335 70.8729C124.842 70.8044 125.352 70.7761 125.864 70.788C126.829 70.8099 127.792 70.8871 128.75 71.0197C128.774 71.023 128.787 71.0126 128.787 70.9883V69.7436C128.787 69.7313 128.782 69.7194 128.774 69.71C128.766 69.7006 128.755 69.6943 128.742 69.6923C127.81 69.5469 126.874 69.4723 125.936 69.4685C123.281 69.4578 120.967 69.8577 121.05 73.1584C121.083 74.4644 121.704 75.4696 123.05 75.6863C123.578 75.7709 124.716 75.9494 126.464 76.2217C126.828 76.2787 127.148 76.3742 127.451 76.5275C128.274 76.9431 128.194 78.1907 127.993 78.9264C127.694 80.0207 126.549 80.2146 125.561 80.2353C124.052 80.2673 122.433 80.139 121.013 79.6664C120.991 79.6592 120.98 79.6668 120.98 79.6892V81.0066C120.98 81.0245 120.986 81.0418 120.997 81.0558C121.008 81.0698 121.024 81.0796 121.041 81.0836C122.146 81.3531 123.266 81.5142 124.402 81.5669C125.776 81.6311 127.688 81.6953 128.754 80.6109C129.574 79.7747 129.718 78.2121 129.552 77.1085C129.425 76.2637 129.125 75.6756 128.363 75.3149Z" stroke="black" stroke-width="2"/>
<path d="M116.816 78.39C117.227 77.3385 117.29 76.0895 117.242 74.9617C117.201 74.0036 117.103 73.0255 116.715 72.2428C116.307 71.4187 115.552 71.0116 114.672 70.8783C113.043 70.6321 111.526 70.9249 110.12 71.7566C110.111 71.762 110.103 71.7698 110.098 71.779C110.093 71.7883 110.09 71.7987 110.09 71.8093V79.8286C110.09 79.8514 110.101 79.8662 110.122 79.8728C111.321 80.2521 112.698 80.3048 113.957 80.1936C115.208 80.0824 116.326 79.6411 116.816 78.39Z" stroke="black" stroke-width="2"/>
<path d="M98.3427 80.0118C98.6317 80.133 98.8705 80.2029 99.0592 80.2214C100.713 80.3826 102.258 80.047 103.697 79.2148C103.717 79.2029 103.734 79.1858 103.746 79.1652C103.758 79.1445 103.764 79.1211 103.764 79.0972V76.143C103.764 76.1226 103.754 76.1107 103.734 76.1073C102.465 75.8773 101.186 75.7889 99.8968 75.8422C99.4543 75.8607 99.0033 75.9329 98.5437 76.0589C97.6298 76.3098 97.3012 76.9742 97.2663 77.8924C97.2335 78.7422 97.4994 79.6575 98.3427 80.0118Z" stroke="black" stroke-width="2"/>
<path d="M74 20H147V93H74V20ZM94.9932 53.6377C94.4208 53.1123 93.5653 52.8457 92.8203 52.6725C91.5827 52.3864 90.3471 52.0941 89.1133 51.7956C88.1901 51.5732 88.1366 50.5488 88.3099 49.7981C88.6399 48.3673 90.6246 48.4614 91.7339 48.537C92.7324 48.6054 93.725 48.7366 94.7116 48.9305C94.7397 48.9362 94.7537 48.9248 94.7537 48.8963L94.753 46.4119C94.753 46.3997 94.7489 46.3879 94.7414 46.3783C94.7339 46.3688 94.7234 46.362 94.7116 46.3591C92.9855 45.9613 91.2617 45.8506 89.5403 46.0269C89.0351 46.0783 88.5363 46.1926 88.0439 46.3698C86.174 47.0421 85.5217 48.4486 85.4048 50.3314C85.3616 51.0229 85.4343 51.6654 85.623 52.259C85.9844 53.3968 86.9162 53.9935 88.0425 54.2701C89.138 54.5391 90.2347 54.8028 91.3325 55.0614C92.312 55.2917 92.8795 55.3979 92.9194 56.4815C92.975 57.9921 92.4118 58.5203 90.9304 58.5809C89.0784 58.6565 87.2583 58.4474 85.4704 57.9536C85.4457 57.9469 85.4333 57.9562 85.4333 57.9814V60.5813C85.4333 60.6074 85.4457 60.6248 85.4704 60.6333C86.8427 61.0953 88.4225 61.2464 89.8618 61.2735C91.1058 61.2963 92.2179 61.2364 93.3443 60.8565C95.6077 60.0937 96.0633 57.9422 95.8708 55.8049C95.7995 55.0172 95.5828 54.1781 94.9932 53.6377ZM102.444 52.855C102.44 52.855 102.437 52.8544 102.434 52.8531C102.431 52.8519 102.429 52.8501 102.427 52.8479C102.424 52.8456 102.422 52.843 102.421 52.84C102.42 52.8371 102.419 52.8339 102.419 52.8308L102.419 48.7716C102.419 48.7651 102.421 48.759 102.426 48.7544C102.43 48.7499 102.436 48.7473 102.443 48.7473H109.442C109.449 48.7473 109.455 48.7448 109.459 48.7402C109.464 48.7357 109.466 48.7295 109.466 48.7231V46.2137C109.466 46.2073 109.464 46.2011 109.459 46.1966C109.455 46.192 109.449 46.1895 109.442 46.1895L99.5543 46.1902C99.5478 46.1902 99.5417 46.1927 99.5371 46.1973C99.5326 46.2018 99.53 46.208 99.53 46.2144V61.0468C99.53 61.0532 99.5326 61.0594 99.5371 61.064C99.5417 61.0685 99.5478 61.0711 99.5543 61.0711H102.394C102.401 61.0711 102.407 61.0685 102.412 61.064C102.416 61.0594 102.419 61.0532 102.419 61.0468V55.3209C102.419 55.3144 102.421 55.3083 102.426 55.3037C102.43 55.2992 102.436 55.2966 102.443 55.2966H108.551C108.557 55.2966 108.564 55.2941 108.568 55.2895C108.573 55.285 108.575 55.2788 108.575 55.2724V52.8785C108.575 52.8721 108.573 52.8659 108.568 52.8614C108.564 52.8568 108.557 52.8543 108.551 52.8543L102.444 52.855ZM116.427 48.7473C116.434 48.7473 116.44 48.75 116.445 48.7548C116.45 48.7596 116.453 48.7662 116.453 48.773V61.0454C116.453 61.0488 116.453 61.0521 116.455 61.0552C116.456 61.0583 116.458 61.0612 116.46 61.0635C116.463 61.0659 116.465 61.0678 116.468 61.0691C116.472 61.0704 116.475 61.0711 116.478 61.0711H119.314C119.321 61.0711 119.327 61.0684 119.332 61.0635C119.337 61.0587 119.34 61.0522 119.34 61.0454V48.773C119.34 48.7696 119.341 48.7663 119.342 48.7632C119.343 48.76 119.345 48.7572 119.347 48.7548C119.35 48.7524 119.353 48.7506 119.356 48.7493C119.359 48.748 119.362 48.7473 119.366 48.7473H123.877C123.884 48.7473 123.89 48.7446 123.895 48.7398C123.9 48.735 123.902 48.7285 123.902 48.7217V46.2158C123.902 46.209 123.9 46.2025 123.895 46.1977C123.89 46.1929 123.884 46.1902 123.877 46.1902H111.934C111.927 46.1902 111.92 46.1929 111.916 46.1977C111.911 46.2025 111.908 46.209 111.908 46.2158V48.7217C111.908 48.7285 111.911 48.735 111.916 48.7398C111.92 48.7446 111.927 48.7473 111.934 48.7473H116.427ZM110.09 70.524V65.6785C110.09 65.6547 110.078 65.6428 110.054 65.6428H108.629C108.605 65.6428 108.593 65.6547 108.593 65.6785V80.97C108.593 80.9802 108.596 80.9901 108.603 80.9982C108.609 81.0064 108.618 81.0122 108.628 81.0149C109.968 81.3766 111.329 81.5681 112.711 81.5895C114.953 81.6244 117.37 81.2672 118.244 78.8513C118.666 77.6864 118.768 76.3782 118.737 75.1499C118.709 73.9765 118.594 72.8936 118.198 71.8271C117.524 70.015 115.879 69.4461 114.072 69.4689C112.639 69.4865 111.323 69.8446 110.124 70.5432C110.101 70.5565 110.09 70.5501 110.09 70.524ZM94.5391 80.0168C94.5391 80.0074 94.5353 79.9983 94.5287 79.9916C94.522 79.9849 94.5129 79.9812 94.5034 79.9812L87.0003 79.9819C86.9908 79.9819 86.9818 79.9781 86.9751 79.9715C86.9684 79.9648 86.9646 79.9557 86.9646 79.9463V66.5796C86.9646 66.5701 86.9609 66.561 86.9542 66.5544C86.9475 66.5477 86.9384 66.5439 86.929 66.5439L85.4697 66.5461C85.4602 66.5461 85.4512 66.5498 85.4445 66.5565C85.4378 66.5632 85.4341 66.5722 85.4341 66.5817L85.4333 81.3899C85.4333 81.3993 85.4371 81.4084 85.4438 81.4151C85.4505 81.4218 85.4595 81.4255 85.469 81.4255L94.5042 81.4227C94.5136 81.4227 94.5227 81.4189 94.5294 81.4122C94.536 81.4055 94.5398 81.3965 94.5398 81.387L94.5391 80.0168ZM103.719 74.8904C102.225 74.6357 100.724 74.562 99.2171 74.6694C98.9191 74.6908 98.6489 74.7284 98.4065 74.7821C96.856 75.1257 96.0597 75.825 95.8879 77.4476C95.7703 78.5597 95.8986 80.0696 96.826 80.8559C97.375 81.3214 98.1192 81.5217 98.8264 81.5709C100.549 81.6907 102.381 81.3029 103.787 80.2699C103.792 80.2667 103.797 80.2647 103.802 80.2642C103.807 80.2636 103.812 80.2645 103.817 80.2668C103.822 80.2691 103.826 80.2726 103.829 80.277C103.832 80.2815 103.834 80.2866 103.834 80.292L103.903 81.3834C103.904 81.4096 103.918 81.4227 103.945 81.4227L105.189 81.4234C105.231 81.4234 105.252 81.4025 105.252 81.3606C105.253 78.7092 105.251 76.0448 105.247 73.3677C105.243 71.5014 104.475 69.9751 102.513 69.6015C101.865 69.4782 101.397 69.4653 100.662 69.4689C99.474 69.4751 98.2868 69.6117 97.1005 69.8788C97.0868 69.8819 97.0745 69.8895 97.0657 69.9004C97.0569 69.9113 97.052 69.9248 97.052 69.9387L97.0527 71.1506C97.0532 71.1825 97.0689 71.1948 97.0998 71.1877C98.6183 70.8227 100.103 70.7081 101.553 70.8441C101.893 70.8759 102.228 70.9743 102.558 71.1392C103.965 71.8421 103.778 73.5637 103.76 74.8562C103.76 74.8838 103.746 74.8952 103.719 74.8904ZM128.362 75.3146C128.016 75.1511 127.706 75.0458 127.431 74.9988C126.927 74.9128 125.724 74.7239 123.822 74.432C123.264 74.3472 122.771 74.1269 122.606 73.5345C122.48 73.084 122.5 72.5759 122.666 72.0104C122.897 71.2219 123.612 70.9695 124.334 70.8726C124.841 70.8041 125.351 70.7759 125.863 70.7878C126.829 70.8096 127.791 70.8868 128.749 71.0194C128.773 71.0228 128.786 71.0123 128.786 70.9881V69.7434C128.786 69.7311 128.781 69.7191 128.773 69.7097C128.765 69.7003 128.754 69.6941 128.741 69.692C127.809 69.5466 126.873 69.472 125.935 69.4682C123.28 69.4575 120.966 69.8574 121.049 73.1581C121.082 74.4641 121.703 75.4693 123.049 75.686C123.577 75.7706 124.715 75.9491 126.463 76.2214C126.827 76.2784 127.147 76.374 127.45 76.5272C128.273 76.9429 128.193 78.1904 127.992 78.9261C127.693 80.0204 126.548 80.2143 125.56 80.235C124.051 80.2671 122.432 80.1387 121.012 79.6661C120.99 79.659 120.979 79.6666 120.979 79.6889V81.0063C120.979 81.0242 120.985 81.0415 120.996 81.0555C121.007 81.0695 121.023 81.0793 121.04 81.0833C122.145 81.3528 123.265 81.5139 124.401 81.5667C125.775 81.6308 127.687 81.695 128.753 80.6107C129.573 79.7745 129.717 78.2118 129.551 77.1082C129.424 76.2635 129.124 75.6753 128.362 75.3146Z" fill="black"/>
<path d="M92.8202 52.6726C93.5652 52.8458 94.4206 53.1124 94.9931 53.6378C95.5827 54.1782 95.7994 55.0173 95.8707 55.805C96.0631 57.9423 95.6076 60.0938 93.3442 60.8566C92.2178 61.2365 91.1057 61.2964 89.8617 61.2736C88.4224 61.2465 86.8426 61.0954 85.4703 60.6334C85.4456 60.6249 85.4332 60.6075 85.4332 60.5814V57.9815C85.4332 57.9563 85.4456 57.947 85.4703 57.9537C87.2582 58.4475 89.0782 58.6566 90.9303 58.581C92.4117 58.5204 92.9749 57.9922 92.9193 56.4816C92.8794 55.398 92.3119 55.2918 91.3324 55.0615C90.2346 54.803 89.1379 54.5392 88.0424 54.2702C86.916 53.9936 85.9843 53.3969 85.6229 52.2591C85.4342 51.6655 85.3615 51.023 85.4047 50.3315C85.5216 48.4487 86.1739 47.0422 88.0438 46.3699C88.5362 46.1927 89.035 46.0784 89.5402 46.027C91.2616 45.8507 92.9854 45.9614 94.7115 46.3592C94.7233 46.3621 94.7338 46.3689 94.7413 46.3785C94.7488 46.388 94.7529 46.3998 94.7529 46.412L94.7536 48.8964C94.7536 48.9249 94.7395 48.9363 94.7115 48.9306C93.7249 48.7367 92.7323 48.6056 91.7338 48.5371C90.6245 48.4615 88.6398 48.3674 88.3097 49.7982C88.1365 50.5489 88.19 51.5733 89.1132 51.7957C90.347 52.0942 91.5826 52.3865 92.8202 52.6726Z" fill="white"/>
<path d="M102.443 52.855L108.55 52.8543C108.557 52.8543 108.563 52.8568 108.567 52.8614C108.572 52.8659 108.574 52.8721 108.574 52.8785V55.2724C108.574 55.2788 108.572 55.285 108.567 55.2895C108.563 55.2941 108.557 55.2966 108.55 55.2966H102.442C102.436 55.2966 102.43 55.2992 102.425 55.3037C102.42 55.3083 102.418 55.3144 102.418 55.3209V61.0468C102.418 61.0532 102.415 61.0594 102.411 61.0639C102.406 61.0685 102.4 61.071 102.394 61.071H99.5536C99.5471 61.071 99.541 61.0685 99.5364 61.0639C99.5319 61.0594 99.5293 61.0532 99.5293 61.0468V46.2144C99.5293 46.208 99.5319 46.2018 99.5364 46.1973C99.541 46.1927 99.5471 46.1902 99.5536 46.1902L109.441 46.1895C109.448 46.1895 109.454 46.192 109.458 46.1966C109.463 46.2011 109.466 46.2073 109.466 46.2137V48.7231C109.466 48.7295 109.463 48.7357 109.458 48.7402C109.454 48.7448 109.448 48.7473 109.441 48.7473H102.442C102.436 48.7473 102.43 48.7499 102.425 48.7544C102.42 48.7589 102.418 48.7651 102.418 48.7715L102.419 52.8307C102.419 52.8339 102.419 52.8371 102.42 52.84C102.422 52.843 102.423 52.8456 102.426 52.8479C102.428 52.8501 102.431 52.8519 102.434 52.8531C102.437 52.8544 102.44 52.855 102.443 52.855Z" fill="white"/>
<path d="M116.427 48.7471H111.934C111.927 48.7471 111.921 48.7444 111.916 48.7396C111.911 48.7348 111.908 48.7282 111.908 48.7214V46.2156C111.908 46.2088 111.911 46.2023 111.916 46.1975C111.921 46.1926 111.927 46.1899 111.934 46.1899H123.877C123.884 46.1899 123.89 46.1926 123.895 46.1975C123.9 46.2023 123.903 46.2088 123.903 46.2156V48.7214C123.903 48.7282 123.9 48.7348 123.895 48.7396C123.89 48.7444 123.884 48.7471 123.877 48.7471H119.366C119.362 48.7471 119.359 48.7477 119.356 48.749C119.353 48.7503 119.35 48.7522 119.348 48.7546C119.345 48.757 119.343 48.7598 119.342 48.7629C119.341 48.766 119.34 48.7694 119.34 48.7727V61.0452C119.34 61.052 119.337 61.0585 119.333 61.0633C119.328 61.0681 119.321 61.0708 119.314 61.0708H116.479C116.475 61.0708 116.472 61.0702 116.469 61.0689C116.466 61.0676 116.463 61.0657 116.46 61.0633C116.458 61.0609 116.456 61.0581 116.455 61.055C116.454 61.0519 116.453 61.0485 116.453 61.0452V48.7727C116.453 48.7659 116.45 48.7594 116.445 48.7546C116.441 48.7498 116.434 48.7471 116.427 48.7471Z" fill="white"/>
<path d="M110.125 70.543C111.324 69.8444 112.64 69.4862 114.072 69.4687C115.88 69.4458 117.525 70.0147 118.199 71.8269C118.595 72.8934 118.71 73.9763 118.738 75.1497C118.769 76.378 118.667 77.6862 118.245 78.851C117.371 81.267 114.954 81.6242 112.711 81.5892C111.329 81.5678 109.968 81.3763 108.629 81.0146C108.619 81.012 108.61 81.0061 108.604 80.998C108.597 80.9899 108.594 80.9799 108.594 80.9697V65.6782C108.594 65.6545 108.606 65.6426 108.629 65.6426H110.055C110.079 65.6426 110.091 65.6545 110.091 65.6782V70.5237C110.091 70.5499 110.102 70.5563 110.125 70.543ZM116.817 78.3898C117.228 77.3383 117.291 76.0893 117.243 74.9615C117.202 74.0034 117.104 73.0253 116.716 72.2425C116.308 71.4184 115.553 71.0114 114.673 70.878C113.044 70.6319 111.527 70.9246 110.121 71.7563C110.112 71.7618 110.104 71.7695 110.099 71.7788C110.094 71.788 110.091 71.7985 110.091 71.8091V79.8284C110.091 79.8512 110.102 79.8659 110.123 79.8726C111.322 80.2518 112.699 80.3046 113.958 80.1934C115.209 80.0822 116.327 79.6409 116.817 78.3898Z" fill="white"/>
<path d="M94.5394 80.0169L94.5401 81.387C94.5401 81.3965 94.5364 81.4056 94.5297 81.4122C94.523 81.4189 94.5139 81.4227 94.5045 81.4227L85.4693 81.4255C85.4598 81.4255 85.4508 81.4218 85.4441 81.4151C85.4374 81.4084 85.4336 81.3993 85.4336 81.3899L85.4344 66.5817C85.4344 66.5723 85.4381 66.5632 85.4448 66.5565C85.4515 66.5498 85.4606 66.5461 85.47 66.5461L86.9293 66.5439C86.9387 66.5439 86.9478 66.5477 86.9545 66.5544C86.9612 66.5611 86.9649 66.5701 86.9649 66.5796V79.9463C86.9649 79.9557 86.9687 79.9648 86.9754 79.9715C86.9821 79.9782 86.9911 79.9819 87.0006 79.9819L94.5038 79.9812C94.5132 79.9812 94.5223 79.985 94.529 79.9917C94.5356 79.9983 94.5394 80.0074 94.5394 80.0169Z" fill="white"/>
<path d="M103.761 74.8561C103.778 73.5636 103.965 71.842 102.559 71.1391C102.228 70.9741 101.893 70.8758 101.554 70.8439C100.103 70.708 98.6185 70.8225 97.1001 71.1875C97.0692 71.1947 97.0535 71.1823 97.053 71.1505L97.0523 69.9386C97.0523 69.9246 97.0572 69.9111 97.066 69.9002C97.0748 69.8893 97.0871 69.8817 97.1008 69.8787C98.2871 69.6116 99.4743 69.4749 100.662 69.4688C101.397 69.4652 101.865 69.478 102.513 69.6014C104.475 69.9749 105.243 71.5012 105.247 73.3676C105.251 76.0447 105.253 78.709 105.252 81.3605C105.252 81.4023 105.231 81.4232 105.189 81.4232L103.945 81.4225C103.919 81.4225 103.905 81.4094 103.903 81.3833L103.835 80.2919C103.834 80.2865 103.833 80.2813 103.83 80.2769C103.826 80.2725 103.822 80.2689 103.818 80.2667C103.813 80.2644 103.807 80.2635 103.802 80.264C103.797 80.2646 103.792 80.2666 103.788 80.2698C102.381 81.3027 100.549 81.6906 98.8267 81.5708C98.1195 81.5216 97.3753 81.3213 96.8263 80.8558C95.8989 80.0694 95.7705 78.5595 95.8882 77.4474C96.06 75.8249 96.8563 75.1255 98.4068 74.7819C98.6492 74.7282 98.9194 74.6907 99.2174 74.6693C100.724 74.5619 102.225 74.6356 103.719 74.8903C103.746 74.895 103.76 74.8836 103.761 74.8561ZM98.3419 80.0117C98.6309 80.1329 98.8697 80.2028 99.0584 80.2213C100.712 80.3824 102.258 80.0469 103.696 79.2147C103.716 79.2028 103.733 79.1857 103.745 79.165C103.757 79.1444 103.764 79.1209 103.764 79.0971V76.1428C103.764 76.1224 103.754 76.1105 103.734 76.1072C102.464 75.8772 101.185 75.7888 99.896 75.842C99.4536 75.8605 99.0026 75.9328 98.543 76.0587C97.6291 76.3097 97.3004 76.9741 97.2655 77.8923C97.2327 78.742 97.4986 79.6574 98.3419 80.0117Z" fill="white"/>
<path d="M128.363 75.3144C129.125 75.6751 129.425 76.2633 129.552 77.108C129.718 78.2116 129.574 79.7742 128.754 80.6105C127.688 81.6948 125.776 81.6306 124.402 81.5664C123.266 81.5137 122.146 81.3526 121.041 81.0831C121.024 81.0791 121.008 81.0693 120.997 81.0553C120.986 81.0413 120.98 81.024 120.98 81.0061V79.6887C120.98 79.6664 120.991 79.6588 121.013 79.6659C122.433 80.1385 124.052 80.2668 125.561 80.2348C126.549 80.2141 127.694 80.0202 127.993 78.9259C128.194 78.1902 128.274 76.9426 127.451 76.527C127.148 76.3737 126.828 76.2782 126.464 76.2212C124.716 75.9489 123.578 75.7704 123.05 75.6858C121.704 75.4691 121.083 74.4639 121.05 73.1579C120.967 69.8572 123.281 69.4573 125.936 69.468C126.874 69.4718 127.81 69.5464 128.742 69.6918C128.755 69.6938 128.766 69.7001 128.774 69.7095C128.782 69.7189 128.787 69.7308 128.787 69.7432V70.9879C128.787 71.0121 128.774 71.0226 128.75 71.0192C127.792 70.8866 126.829 70.8094 125.864 70.7875C125.352 70.7757 124.842 70.8039 124.335 70.8724C123.613 70.9693 122.898 71.2217 122.666 72.0101C122.501 72.5757 122.481 73.0838 122.607 73.5343C122.772 74.1267 123.265 74.347 123.823 74.4318C125.725 74.7236 126.928 74.9126 127.432 74.9986C127.707 75.0456 128.017 75.1509 128.363 75.3144Z" fill="white"/>
<path d="M116.816 78.39C116.326 79.6411 115.208 80.0824 113.957 80.1936C112.698 80.3048 111.321 80.2521 110.122 79.8728C110.101 79.8662 110.09 79.8514 110.09 79.8286V71.8093C110.09 71.7987 110.093 71.7883 110.098 71.779C110.103 71.7698 110.111 71.762 110.12 71.7566C111.526 70.9249 113.043 70.6321 114.672 70.8783C115.552 71.0116 116.307 71.4187 116.715 72.2428C117.103 73.0255 117.201 74.0036 117.242 74.9617C117.29 76.0895 117.227 77.3385 116.816 78.39Z" fill="black"/>
<path d="M98.3409 80.0118C97.4975 79.6575 97.2316 78.7422 97.2644 77.8924C97.2993 76.9742 97.628 76.3098 98.5419 76.0589C99.0015 75.9329 99.4525 75.8607 99.895 75.8422C101.184 75.7889 102.463 75.8773 103.732 76.1073C103.752 76.1107 103.762 76.1226 103.762 76.143V79.0972C103.762 79.1211 103.756 79.1445 103.744 79.1652C103.732 79.1858 103.715 79.2029 103.695 79.2148C102.256 80.047 100.711 80.3826 99.0573 80.2214C98.8686 80.2029 98.6298 80.133 98.3409 80.0118Z" fill="black"/>
</g>
</g>
<defs>
<clipPath id="clip0_396_74">
<rect width="73" height="73" fill="white" transform="translate(74 20)"/>
</clipPath>
</defs>
</svg>
