<svg width="221" height="114" viewBox="0 0 221 114" fill="none" xmlns="http://www.w3.org/2000/svg">
<rect width="221" height="114" rx="20" fill="#EDEDED"/>
<g clip-path="url(#clip0_396_100)">
<path d="M46.0899 41.7483C46.0092 41.7988 45.9737 41.8174 45.9421 41.8413C43.9115 43.378 41.8822 44.9163 39.8488 46.4492C39.7335 46.5362 39.7051 46.6298 39.7069 46.7618C39.715 47.3469 39.7202 47.9322 39.7203 48.5174C39.7212 53.3316 39.7187 58.146 39.7219 62.9602C39.723 64.6978 40.953 66.0585 42.6489 66.2143C44.2856 66.3646 45.7983 65.1668 46.0406 63.5232C46.0705 63.3203 46.0839 63.1133 46.0839 62.9081C46.0856 57.8053 46.0838 52.7026 46.084 47.5998C46.0841 45.7533 46.0878 43.9067 46.0898 42.0603C46.0899 41.9716 46.0899 41.883 46.0899 41.7483ZM43.5125 69.9655C43.5705 70.0061 43.626 70.051 43.6869 70.0869C45.5999 71.2144 47.6419 71.544 49.792 71.0162C53.487 70.1092 56.02 66.8162 56.0203 62.9691C56.0206 58.1468 56.0203 53.3245 56.0203 48.5022C56.0203 47.0431 56.0205 45.5842 56.0198 44.1251C56.0197 44.0473 56.0111 43.9696 56.0044 43.8554C55.9105 43.9153 55.8491 43.9506 55.7919 43.9918C53.8585 45.383 51.9273 46.7774 49.9896 48.1624C49.8154 48.2868 49.7565 48.4148 49.7568 48.6266C49.7629 53.383 49.7629 58.1394 49.7589 62.8958C49.7585 63.2574 49.7501 63.624 49.6942 63.98C49.3281 66.3076 48.1142 68.0398 46.0649 69.1653C45.2751 69.599 44.4209 69.8333 43.5125 69.9655ZM65.9754 45.6356C65.8544 45.7163 65.7801 45.7628 65.709 45.8139C63.7807 47.1978 61.8544 48.5843 59.922 49.9624C59.7568 50.0802 59.6952 50.1996 59.6955 50.4044C59.7018 54.5504 59.7014 58.6964 59.6984 62.8424C59.6981 63.2292 59.6825 63.617 59.6543 64.0028C59.5384 65.5844 59.1096 67.0783 58.392 68.4871C56.374 72.45 52.2307 75.1087 47.5282 74.9643C47.4448 74.9618 47.3612 74.964 47.2778 74.964C47.3451 75.0362 47.4155 75.0734 47.4879 75.1056C50.1239 76.2804 52.8534 76.5641 55.6672 75.95C61.6556 74.643 65.971 69.2326 65.9713 63.0474C65.9714 59.2476 65.971 55.4478 65.9716 51.6479C65.9718 50.0407 65.9741 48.4334 65.9753 46.8262C65.9757 46.4478 65.9754 46.0695 65.9754 45.6356ZM49.7086 34C49.7098 35.0056 49.712 36.0112 49.7124 37.0168C49.7131 38.9208 49.7125 40.8249 49.7125 42.7291C49.7125 42.8165 49.7125 42.904 49.7125 43.0469C50.3143 42.6492 50.8501 42.2529 51.3949 41.8698C51.9504 41.4791 52.504 41.0855 53.0586 40.6932C53.6063 40.3057 54.1544 39.9184 54.7022 39.5307C55.2498 39.1429 55.7973 38.7547 56.345 38.367C56.8994 37.9746 57.454 37.5825 58.0087 37.1904C58.5552 36.804 59.1018 36.4177 59.6917 36.0008C59.7075 36.3362 59.6981 36.6272 59.6998 36.9176C59.7016 37.2225 59.7002 37.5275 59.7002 37.8325C59.7002 38.1293 59.7002 38.4261 59.7002 38.7228C59.7002 39.0278 59.7002 39.3327 59.7002 39.6377C59.7002 39.9344 59.7002 40.2312 59.7002 40.528C59.7002 40.8247 59.7002 41.1215 59.7002 41.4182C59.7002 41.7232 59.7002 42.0281 59.7002 42.3331C59.7002 42.6298 59.7002 42.9266 59.7002 43.2234C59.7002 43.5284 59.7002 43.8334 59.7002 44.1383C59.7002 44.4323 59.7002 44.7263 59.7002 45.0735C59.836 44.9878 59.9381 44.9303 60.0328 44.8625C61.1576 44.0576 62.2801 43.2497 63.4054 42.4456C65.4031 41.0182 67.4022 39.5928 69.401 38.1668C69.4604 38.1245 69.5222 38.0858 69.6059 38.0301C69.617 38.1002 69.6295 38.1508 69.6322 38.2019C69.6362 38.2758 69.6333 38.3502 69.6333 38.4244C69.6333 46.6508 69.6063 54.8772 69.6423 63.1034C69.6683 69.0125 66.3592 75.1283 60.4249 78.1631C58.7217 79.034 56.9213 79.588 55.0301 79.8408C54.6665 79.8894 54.3 79.9163 53.9351 79.956C53.8638 79.9639 53.7938 79.9851 53.7233 80C53.1357 80 52.5482 80 51.9607 80C51.8825 79.984 51.805 79.9602 51.726 79.9533C50.7422 79.8669 49.7664 79.7294 48.8068 79.4883C43.7955 78.2295 39.6291 74.7124 37.511 69.9498C36.7013 68.1292 36.2257 66.2231 36.0867 64.231C36.0749 64.0618 36.0297 63.8949 36 63.7269C36 57.1814 36 50.6358 36 44.0903C36.0692 44.0474 36.1417 44.0092 36.2069 43.9609C40.6255 40.6911 45.0434 37.4205 49.4607 34.1488C49.5166 34.1073 49.5609 34.0499 49.6107 34C49.6434 34 49.676 34 49.7086 34Z" fill="black"/>
<path d="M78.047 47.189C79.41 47.189 80.7447 47.189 82.1067 47.189C82.1108 47.2898 82.1179 47.385 82.118 47.4801C82.1187 49.071 82.1185 50.6617 82.1185 52.2526C82.1185 55.9288 82.1185 59.605 82.1185 63.2812C82.1185 63.9769 82.197 64.663 82.3816 65.3336C82.8523 67.0435 83.9589 68.1185 85.6272 68.6198C86.4002 68.8519 87.1947 68.915 87.9987 68.8911C88.6956 68.8705 89.382 68.7825 90.0422 68.5518C91.7617 67.951 92.7903 66.7304 93.1811 64.9464C93.3085 64.3644 93.3543 63.7737 93.3543 63.179C93.3548 57.9615 93.3546 52.7439 93.3546 47.5264C93.3546 47.4212 93.3546 47.3159 93.3546 47.193C94.721 47.193 96.0617 47.193 97.4187 47.193C97.4244 47.273 97.4339 47.3443 97.4339 47.4156C97.4345 52.7156 97.441 58.0156 97.4299 63.3157C97.427 64.6865 97.2031 66.0262 96.6366 67.2843C95.6783 69.4122 94.106 70.89 91.9505 71.7363C90.4224 72.3363 88.8351 72.5582 87.2026 72.5006C85.8708 72.4536 84.5779 72.2131 83.3416 71.704C80.6968 70.6149 79.056 68.6427 78.3488 65.8633C78.1367 65.0298 78.0473 64.1781 78.0472 63.3176C78.0467 58.0341 78.047 52.7506 78.047 47.4671C78.047 47.3789 78.047 47.2907 78.047 47.189Z" fill="black"/>
<path d="M160.989 62.4323C160.996 61.596 160.927 60.6931 160.649 59.8221C160.123 58.1793 159.151 56.9121 157.573 56.1737C156.907 55.8628 156.206 55.688 155.475 55.6424C154.156 55.5602 152.93 55.85 151.822 56.5857C150.863 57.2225 150.228 58.1285 149.787 59.1822C149.474 59.9331 149.329 60.7245 149.273 61.535C149.196 62.6361 149.263 63.7256 149.544 64.7942C149.826 65.8576 150.32 66.8016 151.135 67.5525C152.446 68.7604 154.009 69.1829 155.733 68.95C157.881 68.6597 159.433 67.4932 160.363 65.5067C160.807 64.559 160.955 63.5441 160.989 62.4323ZM145.096 62.3543C145.1 60.6933 145.362 59.1185 146.055 57.639C147.404 54.7629 149.646 52.9988 152.702 52.3123C154.811 51.8387 156.911 51.9398 158.94 52.718C162.089 53.926 164.045 56.241 164.848 59.5217C165.386 61.7203 165.328 63.9336 164.544 66.0702C163.363 69.2917 161.077 71.3416 157.801 72.2209C155.637 72.8018 153.461 72.7523 151.347 71.9682C148.343 70.8527 146.435 68.6763 145.526 65.5921C145.212 64.5262 145.104 63.4287 145.096 62.3543Z" fill="black"/>
<path d="M171.826 72.2474C170.461 72.2474 169.121 72.2474 167.766 72.2474C167.766 65.6262 167.766 59.0198 167.766 52.3967C169.113 52.3967 170.449 52.3967 171.815 52.3967C171.845 53.1115 171.811 53.8316 171.834 54.5894C171.898 54.5384 171.936 54.5153 171.963 54.4833C173.047 53.2533 174.417 52.5323 175.996 52.2217C177.81 51.8648 179.59 52.025 181.294 52.7678C183.475 53.7182 184.798 55.4154 185.419 57.703C185.648 58.5509 185.731 59.4172 185.731 60.2955C185.726 64.1945 185.728 68.0937 185.728 71.9927C185.728 72.0733 185.728 72.1539 185.728 72.2493C184.384 72.2493 183.066 72.2493 181.719 72.2493C181.716 72.1392 181.71 72.0356 181.71 71.9323C181.71 68.3051 181.71 64.6781 181.71 61.0511C181.71 60.1617 181.602 59.2889 181.261 58.4628C180.628 56.9259 179.486 56.0132 177.869 55.7208C176.882 55.5423 175.898 55.5823 174.945 55.9174C173.406 56.4594 172.472 57.5693 172.059 59.1476C171.881 59.8301 171.828 60.528 171.828 61.2299C171.825 64.7911 171.826 68.3521 171.826 71.9133C171.826 72.0191 171.826 72.125 171.826 72.2474Z" fill="black"/>
<path d="M105.374 72.25C104.007 72.25 102.673 72.25 101.32 72.25C101.32 65.6288 101.32 59.0171 101.32 52.3925C102.667 52.3925 104.002 52.3925 105.371 52.3925C105.371 53.116 105.371 53.834 105.371 54.6015C105.443 54.5387 105.475 54.5172 105.499 54.4893C106.515 53.3352 107.789 52.6162 109.267 52.2835C111.385 51.8066 113.436 52.0171 115.376 53.032C117.179 53.9752 118.295 55.4938 118.883 57.4302C119.178 58.3983 119.292 59.3949 119.293 60.4055C119.294 64.2628 119.293 68.12 119.293 71.9773C119.293 72.0588 119.293 72.1402 119.293 72.2155C119.095 72.2757 115.515 72.2836 115.26 72.2257C115.26 72.1328 115.26 72.0351 115.26 71.9374C115.26 68.3438 115.261 64.7502 115.259 61.1567C115.259 60.3034 115.174 59.4598 114.876 58.6543C114.26 56.9906 113.079 56.0082 111.347 55.7103C110.474 55.5603 109.603 55.5855 108.752 55.8333C107.111 56.3119 106.08 57.4113 105.624 59.0662C105.441 59.7288 105.374 60.4083 105.374 61.0955C105.374 64.6972 105.374 68.299 105.374 71.9007C105.374 72.0073 105.374 72.1137 105.374 72.25Z" fill="black"/>
<path d="M134.725 68.9031C137.665 68.9031 140.605 68.9031 143.559 68.9031C143.559 70.0307 143.559 71.1314 143.559 72.2481C139.027 72.2481 134.503 72.2481 129.961 72.2481C129.953 72.1819 129.94 72.1197 129.94 72.0575C129.939 71.0602 129.942 70.0629 129.936 69.0657C129.935 68.9114 130 68.8009 130.078 68.6848C132.603 64.9783 135.125 61.2711 137.647 57.5642C138.007 57.0346 138.368 56.5052 138.729 55.9752C138.773 55.91 138.812 55.8416 138.877 55.7354C135.881 55.7354 132.926 55.7354 129.954 55.7354C129.954 54.6075 129.954 53.5087 129.954 52.395C134.49 52.395 139.015 52.395 143.556 52.395C143.562 52.4707 143.571 52.5421 143.571 52.6135C143.572 53.586 143.568 54.5586 143.575 55.531C143.576 55.6997 143.519 55.8281 143.428 55.9608C140.722 59.9499 138.018 63.9406 135.312 67.931C135.106 68.2359 134.9 68.5412 134.695 68.8464C134.704 68.8652 134.715 68.8842 134.725 68.9031Z" fill="black"/>
<path d="M123.062 53.043C124.418 53.043 125.753 53.043 127.086 53.043C127.137 53.2332 127.145 72.0011 127.094 72.2454C125.754 72.2454 124.413 72.2454 123.062 72.2454C123.062 65.843 123.062 59.4588 123.062 53.043Z" fill="black"/>
<path d="M122.949 50.4986C122.949 49.0206 122.949 47.5592 122.949 46.0845C124.407 46.0845 125.853 46.0845 127.309 46.0845C127.309 47.5602 127.309 49.0217 127.309 50.4986C125.858 50.4986 124.419 50.4986 122.949 50.4986Z" fill="black"/>
</g>
<defs>
<clipPath id="clip0_396_100">
<rect width="150" height="46" fill="white" transform="translate(36 34)"/>
</clipPath>
</defs>
</svg>
