<svg width="430" height="61" viewBox="0 0 430 61" fill="none" xmlns="http://www.w3.org/2000/svg">
<path d="M1.16443 25.5066C2.78969 27.403 3.52124 32.1915 3.59662 32.1512C6.92667 30.4121 10.7411 29.8318 14.4377 30.5018C17.453 31.0925 19.2893 32.3674 21.2085 33.7945C23.1277 35.2216 24.0394 35.8208 25.6922 36.4343C27.3449 37.0478 30.623 37.1166 33.8327 36.6069C41.4185 35.4031 46.4185 35.7663 50.6277 37.7078C50.0777 37.8074 49.4979 37.9378 48.8735 38.0914C45.1839 36.7487 40.4627 36.4343 34.0925 37.585C31.8642 37.9657 29.5944 38.0405 27.3459 37.8074C25.5952 37.5523 23.9218 36.916 22.444 35.9432C21.8192 35.5056 21.1341 34.984 20.4186 34.4696C19.8388 33.9955 16.8377 32.1014 14.9777 31.6567C13.1458 31.2243 11.2525 31.1157 9.38317 31.3358C7.77561 31.5802 6.21561 32.0721 4.75867 32.7941C3.66565 33.3828 2.76605 34.2748 2.16812 35.3628C2.28033 36.0029 2.38163 36.5225 2.47203 36.9217C2.50948 36.8682 3.42025 34.086 5.54807 33.9405C7.67589 33.7949 8.41693 36.2191 8.71799 37.5542C9.00904 39.2843 9.03702 41.0486 8.80096 42.787C8.71799 43.7462 8.6355 44.7356 8.6355 45.7023C8.61794 47.2189 8.80273 48.731 9.18499 50.1988C9.79518 50.8891 10.4423 51.5415 11.1203 52.1707C10.1185 50.5748 9.63682 48.5199 9.63682 45.6947C9.63682 44.774 9.71979 43.8073 9.79518 42.8638C10.0425 41.0201 10.0068 39.1496 9.68945 37.3167C9.23003 35.2837 8.38185 33.9708 7.27527 33.372C9.61691 33.4029 11.7902 33.62 13.763 34.9167C15.7358 36.2134 16.5518 38.0303 18.6123 39.9424C20.6728 41.8545 24.3817 43.857 26.8329 44.1093C29.2841 44.3615 30.8757 43.9305 32.9651 43.2558C35.0545 42.5812 38.8393 40.9303 41.0136 40.2618C42.583 39.7934 44.1969 39.4898 45.8292 39.3559C43.8351 40.2619 41.1393 42.4532 41.2052 44.1083C41.273 45.8118 42.106 46.8985 41.657 48.5489C41.208 50.1992 40.2821 51.0048 40.2821 52.21C32.7972 54.2127 26.6153 53.7826 21.9472 50.9133C18.7 48.9109 16.2573 45.8338 15.0436 42.2171L14.8255 41.5192H13.7635C14.9379 45.7787 17.6716 49.4406 21.4214 51.7776C24.551 53.6032 28.1308 54.5123 31.7523 54.4013C34.698 54.362 37.6263 53.9416 40.4641 53.1506C40.6144 53.9855 40.8036 54.0093 41.4204 55.1993C42.0372 56.3893 42.4445 57.0867 42.2714 58.6214C38.6123 60.191 34.6723 61.0002 30.6908 61C29.0583 60.9988 27.4288 60.8628 25.8188 60.5933C9.49981 57.8387 -1.53897 42.1328 1.16443 25.5066ZM52.1316 39.9157C52.7323 39.8227 53.3468 39.9399 53.8711 40.2476L54.3116 40.5235C54.8332 40.8799 55.2768 41.3387 55.6156 41.8719C55.9543 42.4051 56.181 43.0016 56.282 43.6252C56.4384 44.9394 55.8553 46.2612 54.5429 47.5323C54.4974 47.5791 54.4428 47.6161 54.3824 47.641C54.3221 47.666 54.2573 47.6784 54.1921 47.6775C54.1426 47.6851 54.0922 47.6851 54.0427 47.6775L44.3765 44.7L44.2869 44.6636C44.0698 44.955 43.9544 45.3096 43.9583 45.6729C43.9968 46.0579 44.0846 46.4364 44.2196 46.7989C44.6155 47.7559 44.6527 48.8236 44.3244 49.8058C44.1389 50.3576 43.8909 50.8863 43.5852 51.3817C43.085 52.2532 42.8091 52.7325 43.4657 53.9093C43.6601 54.2885 43.8687 54.6204 44.048 54.9115C44.6828 55.9503 45.1825 56.7416 45.0706 58.2014C45.0588 58.3255 45.0008 58.4405 44.9082 58.5239C44.8156 58.6073 44.695 58.6529 44.5704 58.6518H44.5334C44.4708 58.6482 44.4096 58.6322 44.3532 58.6048C44.2968 58.5774 44.2464 58.5391 44.2049 58.492C44.2945 57.0175 43.8318 56.2044 43.1974 55.1149C43.0253 54.8025 42.8181 54.4469 42.6152 54.0472C41.9514 52.7671 42.2492 52.2171 42.7342 51.3021C43.0403 50.7669 43.2856 50.1991 43.4657 49.6095C43.7866 48.577 43.7498 47.4666 43.3614 46.4576C43.2215 46.0619 43.1362 45.6489 43.1078 45.2301C43.095 44.9893 43.1358 44.7487 43.2273 44.5256C43.7058 43.7212 44.3683 43.0417 45.1602 42.5428C46.4633 41.6129 47.9146 40.9107 49.4524 40.4658C49.9673 40.3349 50.4523 40.2187 50.9079 40.1243L51.4152 40.0372L51.7765 39.9698L52.1316 39.9157ZM52.6925 40.8512H52.4303C51.7262 40.9249 51.028 41.0462 50.3404 41.2143C48.6903 41.6108 47.1318 42.321 45.75 43.3062C45.5035 43.4873 45.2574 43.6764 45.0185 43.8722L54.0427 46.6695H54.0503C54.9758 45.6455 55.3935 44.6649 55.2968 43.6992C55.1239 42.7272 54.5738 41.8629 53.7663 41.2949L53.4231 41.0845C53.1257 40.9024 52.7776 40.8209 52.4303 40.8522L52.6925 40.8512ZM20.2541 22.0152C19.4946 22.4524 18.702 22.8295 17.8835 23.1431C14.2841 24.463 11.5138 24.7735 6.09567 23.6764C6.29818 24.9374 6.22621 26.2272 5.88469 27.4578C5.54316 28.6884 4.94011 29.8309 4.11672 30.8071C3.25099 26.4263 1.26493 23.6266 0 22.3451C1.04948 22.2923 2.09523 22.1816 3.13246 22.0132C15.742 20.0665 19.3035 21.3709 20.2522 22.0152H20.2541ZM22.0918 22.0535C22.0918 22.0687 21.9666 27.2096 17.9153 30.4999C17.9153 30.4999 11.5233 28.0971 5.47222 30.4999C6.63642 28.8337 7.20072 26.8216 7.07282 24.793C15.1052 26.4808 20.4708 23.2734 22.0899 22.0535H22.0918ZM44.9971 3.73904C49.3946 6.20618 53.1101 9.72736 55.8098 13.9861L56.3066 14.7954L44.3116 21.854C44.2513 21.7544 44.1911 21.6643 44.1309 21.5624C43.0048 19.7662 41.5305 18.2137 39.7949 16.9961C38.0594 15.7786 36.0977 14.9208 34.0255 14.4733C31.9533 14.0257 29.8124 13.9974 27.7291 14.39C25.6458 14.7827 23.6621 15.5883 21.895 16.7596C27.8014 9.81006 35.9916 5.19365 44.9952 3.73904H44.9971ZM41.9704 2.266C38.0463 3.18928 34.2824 4.69431 30.8036 6.73118C25.1923 10.0281 20.4378 14.6021 16.9263 20.0817C14.2002 19.8053 9.87815 19.9362 3.00351 20.9949C2.73232 21.0423 2.47629 21.0792 2.18282 21.11C2.4085 20.3989 2.66451 19.6906 2.9414 18.9923C9.18357 3.39394 26.6594 -4.0947 41.9685 2.266H41.9704Z" fill="#BCBCBC"/>
<path d="M157.205 23.0207C164.131 23.0207 169.452 27.6669 169.452 35.1409C169.452 42.6148 164.047 47.2611 157.121 47.2611C150.194 47.2611 144.958 42.6148 144.958 35.1409C144.958 27.6669 150.321 23.0207 157.205 23.0207ZM370.214 23.0207C377.14 23.0207 382.461 27.6669 382.461 35.1409C382.461 42.6148 377.056 47.2611 370.13 47.2611C363.204 47.2611 357.967 42.6148 357.967 35.1409C357.967 27.6669 363.331 23.0207 370.214 23.0207ZM183.287 23.0207C186.792 23.0207 189.284 24.6255 190.55 26.695V23.3588H197.772V46.9222H190.55V43.5877C189.241 45.6568 186.75 47.2617 183.245 47.2617C177.501 47.2617 172.898 42.5319 172.898 35.0992C172.898 27.6665 177.501 23.0207 183.287 23.0207ZM287.028 23.0207C293.911 23.0207 298.768 27.5816 298.768 34.7611C298.766 35.4667 298.724 36.1717 298.641 36.8724H282.298C282.551 39.9541 284.451 41.3911 286.774 41.3911C288.801 41.3911 289.942 40.3775 290.533 39.1106H298.219C297.081 43.7138 292.898 47.2611 287.03 47.2611C280.104 47.2611 275.12 42.6148 275.12 35.1409C275.12 27.6669 280.018 23.0207 287.028 23.0207ZM113.36 16.9397C120.413 16.9397 125.734 20.9094 127.423 27.3284H119.484C118.26 24.7943 116.023 23.5275 113.276 23.5275C108.842 23.5275 105.801 26.8216 105.801 32.0582C105.801 37.2948 108.842 40.5889 113.276 40.5889C116.021 40.5889 118.26 39.3216 119.484 36.788H127.424C125.734 43.207 120.413 47.1346 113.361 47.1346C104.619 47.1346 98.4535 40.9265 98.4535 32.0577C98.4535 23.189 104.618 16.9397 113.36 16.9397ZM326.564 23.3588L329.9 40.2086L333.87 23.3588H341.514L345.526 40.1243L348.819 23.3588H355.619L349.242 46.9222H341.261L337.545 31.6343L333.701 46.9222H325.762L319.343 23.3588H326.564ZM94.4577 23.3588V29.1022L84.4492 40.9687H94.6687V46.9235H76.3835V41.1801L86.1811 29.3131H76.4679V23.3588H94.4577ZM250.979 17.2772L263.057 35.6477V17.2772H270.278V46.9235H263.058L250.979 28.6374V46.9235H243.756V17.2772H250.979ZM401.955 23.106V30.7501H399.97C396.549 30.7501 394.565 31.9326 394.565 35.9868V46.9245H387.343V23.3611H394.565V27.2886C396.212 24.7967 398.788 23.1075 401.955 23.1075V23.106ZM140.119 15.6724V46.9235H132.897V15.6724H140.119ZM211.269 15.6724V32.9448L218.406 23.3588H227.317L217.519 35.1831L227.401 46.9235H218.448L211.269 37.0416V46.9235H204.048V15.6724H211.269ZM311.971 17.6163V23.3597H316.701V29.3562H311.971V38.8162C311.971 40.2096 312.562 40.8008 314.167 40.8008H316.743V46.9245H313.069C308.17 46.9245 304.749 44.855 304.749 38.7313V29.3562H301.877V23.3597H304.749V17.6163H311.971ZM413.68 15.6724V32.9448L420.817 23.3588H429.727L419.93 35.1831L429.812 46.9235H420.858L413.678 37.0416V46.9235H406.457V15.6724H413.68ZM157.205 29.2694C154.587 29.2694 152.306 31.1275 152.306 35.1395C152.306 39.1092 154.502 41.0095 157.121 41.0095C159.697 41.0095 162.104 39.1092 162.104 35.1395C162.104 31.129 159.739 29.2694 157.205 29.2694ZM370.214 29.2694C367.596 29.2694 365.315 31.1275 365.315 35.1395C365.315 39.1092 367.511 41.0095 370.13 41.0095C372.706 41.0095 375.113 39.1092 375.113 35.1395C375.113 31.129 372.748 29.2694 370.214 29.2694ZM185.398 29.3117C182.696 29.3117 180.246 31.339 180.246 35.0958C180.246 38.8527 182.696 40.9659 185.398 40.9659C188.143 40.9659 190.55 38.8969 190.55 35.1381C190.55 31.3793 188.142 29.3131 185.398 29.3131V29.3117ZM286.943 28.8048C284.578 28.8048 282.762 30.2409 282.34 32.859H291.377C291.377 30.2845 289.35 28.8063 286.943 28.8063V28.8048Z" fill="#BCBCBC"/>
</svg>
