<svg width="417" height="114" viewBox="0 0 417 114" fill="none" xmlns="http://www.w3.org/2000/svg">
<rect width="417" height="114" rx="20" fill="#EDEDED"/>
<g clip-path="url(#clip0_396_110)">
<path d="M43.8963 52.6526C45.1474 54.1138 45.7105 57.8033 45.7686 57.7722C48.3319 56.4323 51.2681 55.9852 54.1137 56.5014C56.4348 56.9565 57.8483 57.9388 59.3256 59.0384C60.8029 60.1379 61.5047 60.5996 62.777 61.0723C64.0492 61.545 66.5726 61.598 69.0433 61.2053C74.8826 60.2778 78.7314 60.5576 81.9716 62.0535C81.5482 62.1303 81.1019 62.2308 80.6212 62.3491C77.7811 61.3146 74.1469 61.0723 69.2433 61.9589C67.528 62.2523 65.7808 62.3099 64.05 62.1303C62.7024 61.9337 61.4142 61.4435 60.2767 60.6939C59.7957 60.3568 59.2683 59.9549 58.7176 59.5585C58.2713 59.1933 55.9611 57.7339 54.5293 57.3912C53.1192 57.0581 51.6618 56.9744 50.2229 57.144C48.9854 57.3323 47.7846 57.7113 46.6631 58.2676C45.8217 58.7212 45.1292 59.4084 44.6689 60.2467C44.7553 60.7399 44.8333 61.1403 44.9029 61.4479C44.9317 61.4066 45.6328 59.263 47.2707 59.1509C48.9086 59.0387 49.4791 60.9065 49.7108 61.9352C49.9349 63.2682 49.9564 64.6276 49.7747 65.967C49.7108 66.7061 49.6473 67.4684 49.6473 68.2132C49.6338 69.3818 49.7761 70.5468 50.0703 71.6778C50.54 72.2096 51.0381 72.7123 51.56 73.1971C50.7889 71.9675 50.4181 70.3842 50.4181 68.2074C50.4181 67.498 50.482 66.7532 50.54 66.0262C50.7304 64.6056 50.7029 63.1644 50.4586 61.7522C50.105 60.1858 49.4521 59.1742 48.6003 58.7128C50.4028 58.7367 52.0757 58.9039 53.5943 59.903C55.1129 60.9021 55.741 62.302 57.3271 63.7753C58.9132 65.2485 61.7682 66.7915 63.6551 66.9858C65.5419 67.1802 66.7671 66.8481 68.3755 66.3282C69.9838 65.8085 72.8972 64.5365 74.5709 64.0214C75.779 63.6605 77.0213 63.4266 78.2778 63.3234C76.7428 64.0215 74.6677 65.7098 74.7184 66.9851C74.7706 68.2976 75.4118 69.1349 75.0662 70.4065C74.7206 71.6781 74.0078 72.2988 74.0078 73.2274C68.2462 74.7704 63.4876 74.439 59.8942 72.2283C57.3947 70.6854 55.5143 68.3146 54.5801 65.5279L54.4122 64.9902H53.5947C54.4987 68.2721 56.603 71.0936 59.4895 72.8942C61.8986 74.3008 64.6542 75.0013 67.4419 74.9158C69.7094 74.8855 71.9635 74.5616 74.1479 73.9521C74.2636 74.5954 74.4093 74.6137 74.8841 75.5306C75.3589 76.4475 75.6724 76.9848 75.5391 78.1673C72.7225 79.3767 69.6896 80.0001 66.6248 80C65.3681 79.9991 64.1138 79.8943 62.8745 79.6866C50.3126 77.5642 41.8154 65.463 43.8963 52.6526ZM83.1292 63.7547C83.5916 63.6831 84.0646 63.7734 84.4682 64.0104L84.8073 64.223C85.2088 64.4976 85.5503 64.8511 85.8111 65.262C86.0718 65.6728 86.2463 66.1324 86.3241 66.6129C86.4444 67.6254 85.9956 68.6439 84.9853 69.6232C84.9503 69.6593 84.9083 69.6878 84.8618 69.707C84.8154 69.7263 84.7655 69.7358 84.7153 69.7351C84.6772 69.741 84.6384 69.741 84.6003 69.7351L77.1596 67.441L77.0906 67.4129C76.9235 67.6375 76.8347 67.9107 76.8377 68.1906C76.8673 68.4872 76.9349 68.7789 77.0388 69.0582C77.3436 69.7955 77.3722 70.6182 77.1195 71.375C76.9767 71.8001 76.7858 72.2075 76.5505 72.5892C76.1654 73.2607 75.953 73.63 76.4585 74.5367C76.6081 74.8288 76.7687 75.0846 76.9067 75.3089C77.3954 76.1092 77.78 76.7189 77.6939 77.8437C77.6848 77.9393 77.6401 78.0279 77.5689 78.0922C77.4976 78.1564 77.4048 78.1916 77.3088 78.1907H77.2804C77.2322 78.188 77.1851 78.1756 77.1416 78.1545C77.0982 78.1334 77.0594 78.1039 77.0275 78.0676C77.0965 76.9315 76.7403 76.305 76.2519 75.4656C76.1195 75.2249 75.96 74.9509 75.8038 74.6429C75.2928 73.6566 75.5221 73.2328 75.8954 72.5278C76.131 72.1155 76.3198 71.678 76.4585 71.2237C76.7055 70.4282 76.6772 69.5726 76.3782 68.7952C76.2705 68.4903 76.2048 68.1721 76.183 67.8494C76.1731 67.6639 76.2045 67.4785 76.275 67.3066C76.6433 66.6868 77.1533 66.1633 77.7628 65.7789C78.7659 65.0624 79.8831 64.5214 81.0668 64.1786C81.4632 64.0777 81.8365 63.9882 82.1872 63.9154L82.5777 63.8483L82.8559 63.7964L83.1292 63.7547ZM83.3591 64.4755C82.8171 64.5323 82.2797 64.6258 81.7504 64.7553C80.4802 65.0608 79.2805 65.608 78.2169 66.3671C78.0271 66.5066 77.8377 66.6523 77.6538 66.8032L84.6003 68.9585H84.6062C85.3186 68.1695 85.6401 67.4139 85.5657 66.6699C85.4326 65.921 85.0091 65.255 84.3875 64.8174L84.1234 64.6553C83.8944 64.515 83.6265 64.4514 83.3591 64.4755ZM58.5909 49.9625C58.0063 50.2994 57.3962 50.5899 56.7661 50.8316C53.9954 51.8485 51.8629 52.0878 47.6922 51.2425C47.8481 52.2141 47.7927 53.2078 47.5298 54.156C47.2669 55.1042 46.8027 55.9845 46.1689 56.7366C45.5025 53.3612 43.9737 51.2041 43 50.2167C43.8079 50.176 44.6128 50.0907 45.4113 49.961C55.1177 48.4611 57.8592 49.4661 58.5895 49.9625H58.5909ZM60.0055 49.992C60.0055 50.0037 59.9092 53.9648 56.7906 56.4999C56.7906 56.4999 51.8703 54.6486 47.2123 56.4999C48.1085 55.2161 48.5429 53.6658 48.4444 52.1028C54.6275 53.4032 58.7578 50.932 60.0041 49.992H60.0055ZM77.6373 35.8809C81.0224 37.7818 83.8824 40.4948 85.9606 43.7762L86.343 44.3997L77.1096 49.8383C77.0632 49.7616 77.0169 49.6922 76.9705 49.6136C76.1037 48.2297 74.9688 47.0335 73.6328 46.0954C72.2969 45.1573 70.7868 44.4964 69.1917 44.1516C67.5966 43.8067 65.9486 43.7849 64.345 44.0874C62.7413 44.3899 61.2143 45.0107 59.8541 45.9131C64.4006 40.5586 70.7052 37.0017 77.6358 35.8809H77.6373ZM75.3074 34.7459C72.2868 35.4573 69.3895 36.6169 66.7116 38.1863C62.3922 40.7266 58.7324 44.2508 56.0293 48.4728C53.9309 48.2598 50.6039 48.3607 45.312 49.1764C45.1033 49.2129 44.9062 49.2413 44.6803 49.2651C44.854 48.7172 45.0511 48.1714 45.2642 47.6334C50.0692 35.615 63.5215 29.8451 75.306 34.7459H75.3074Z" fill="black"/>
<path d="M164.011 50.7375C169.342 50.7375 173.438 54.3173 173.438 60.076C173.438 65.8346 169.277 69.4145 163.946 69.4145C158.614 69.4145 154.583 65.8346 154.583 60.076C154.583 54.3173 158.712 50.7375 164.011 50.7375ZM327.978 50.7375C333.309 50.7375 337.405 54.3173 337.405 60.076C337.405 65.8346 333.245 69.4145 327.913 69.4145C322.582 69.4145 318.551 65.8346 318.551 60.076C318.551 54.3173 322.68 50.7375 327.978 50.7375ZM184.088 50.7375C186.786 50.7375 188.704 51.974 189.679 53.5685V50.998H195.238V69.1534H189.679V66.5842C188.671 68.1784 186.753 69.415 184.055 69.415C179.634 69.415 176.091 65.7707 176.091 60.0439C176.091 54.317 179.634 50.7375 184.088 50.7375ZM263.944 50.7375C269.242 50.7375 272.981 54.2516 272.981 59.7834C272.98 60.327 272.947 60.8702 272.883 61.4101H260.303C260.498 63.7845 261.96 64.8917 263.749 64.8917C265.309 64.8917 266.187 64.1108 266.642 63.1346H272.559C271.683 66.6814 268.463 69.4145 263.946 69.4145C258.614 69.4145 254.778 65.8346 254.778 60.076C254.778 54.3173 258.548 50.7375 263.944 50.7375ZM130.26 46.0521C135.689 46.0521 139.785 49.1107 141.085 54.0565H134.974C134.032 52.104 132.31 51.128 130.196 51.128C126.782 51.128 124.442 53.6661 124.442 57.7008C124.442 61.7356 126.782 64.2736 130.196 64.2736C132.309 64.2736 134.032 63.2972 134.974 61.3451H141.086C139.785 66.2909 135.689 69.3171 130.261 69.3171C123.532 69.3171 118.786 64.5338 118.786 57.7004C118.786 50.8672 123.531 46.0521 130.26 46.0521ZM294.378 50.998L296.946 63.9806L300.002 50.998H305.886L308.974 63.9157L311.509 50.998H316.743L311.834 69.1534H305.691L302.83 57.3742L299.872 69.1534H293.76L288.819 50.998H294.378ZM115.71 50.998V55.4232L108.006 64.5663H115.872V69.1544H101.797V64.7292L109.339 55.5857H101.862V50.998H115.71ZM236.195 46.3122L245.492 60.4665V46.3122H251.051V69.1544H245.493L236.195 55.0651V69.1544H230.635V46.3122H236.195ZM352.411 50.8032V56.6929H350.883C348.25 56.6929 346.723 57.604 346.723 60.7278V69.1552H341.163V50.9998H346.723V54.0259C347.99 52.1059 349.973 50.8044 352.411 50.8044V50.8032ZM150.858 45.0757V69.1544H145.299V45.0757H150.858ZM205.627 45.0757V58.3839L211.121 50.998H217.981L210.438 60.1085L218.045 69.1544H211.153L205.627 61.5405V69.1544H200.069V45.0757H205.627ZM283.144 46.5734V50.9987H286.785V55.6189H283.144V62.9078C283.144 63.9814 283.599 64.4369 284.835 64.4369H286.818V69.1552H283.99C280.219 69.1552 277.585 67.5606 277.585 62.8424V55.6189H275.374V50.9987H277.585V46.5734H283.144ZM361.437 45.0757V58.3839L366.931 50.998H373.789L366.248 60.1085L373.855 69.1544H366.962L361.435 61.5405V69.1544H355.877V45.0757H361.437ZM164.011 55.5521C161.995 55.5521 160.24 56.9837 160.24 60.0749C160.24 63.1335 161.93 64.5977 163.946 64.5977C165.929 64.5977 167.782 63.1335 167.782 60.0749C167.782 56.9849 165.961 55.5521 164.011 55.5521ZM327.978 55.5521C325.963 55.5521 324.207 56.9837 324.207 60.0749C324.207 63.1335 325.897 64.5977 327.913 64.5977C329.896 64.5977 331.749 63.1335 331.749 60.0749C331.749 56.9849 329.929 55.5521 327.978 55.5521ZM185.713 55.5847C183.633 55.5847 181.747 57.1467 181.747 60.0413C181.747 62.9359 183.633 64.5641 185.713 64.5641C187.826 64.5641 189.679 62.97 189.679 60.0738C189.679 57.1777 187.825 55.5857 185.713 55.5857V55.5847ZM263.879 55.1941C262.058 55.1941 260.66 56.3006 260.335 58.3178H267.292C267.292 56.3342 265.732 55.1952 263.879 55.1952V55.1941Z" fill="black"/>
</g>
<defs>
<clipPath id="clip0_396_110">
<rect width="331" height="47" fill="white" transform="translate(43 33)"/>
</clipPath>
</defs>
</svg>
